<?xml version="1.0" encoding="UTF-8"?>
<svg version="1.1" xmlns="http://www.w3.org/2000/svg" width="707" height="353">
<path d="M0 0 C5.81165291 3.02638292 10.90398059 6.91557847 16 11 C18.40098098 12.79240146 20.82583014 14.55163887 23.25 16.3125 C28.34447249 20.02219998 33.36736558 23.78984266 38.265625 27.7578125 C40.09117491 29.19445067 40.09117491 29.19445067 43 30 C44.35439668 32.70879335 44.06501451 35.00933268 44 38 C40.0050472 39.50256595 36.00902927 41.00023559 32 42.46484375 C25.82009311 44.73405206 19.78743083 46.97347436 13.96875 50.07421875 C10.48867316 51.71068346 6.80119592 52.76070131 3.14453125 53.93359375 C-1.0083539 55.3419635 -5.00543723 57.05054024 -9.0390625 58.765625 C-15.22954705 61.34635471 -21.38067908 63.81586388 -28 65 C-28 65.66 -28 66.32 -28 67 C-28.598125 67.165 -29.19625 67.33 -29.8125 67.5 C-33.24040809 69.85056555 -34.0118946 73.06905895 -35 77 C-35.56306778 82.25529931 -34.94306713 87.51135988 -32 92 C-27.12364664 96.05218096 -22.09961558 97.26854535 -16.0625 98.625 C-14.32398245 99.03284821 -12.58569638 99.44168455 -10.84765625 99.8515625 C-9.61426514 100.13821777 -9.61426514 100.13821777 -8.35595703 100.43066406 C-5.20594836 101.19188896 -2.10659728 102.07858747 1 103 C1.33 104.65 1.66 106.3 2 108 C-11.99216436 116.64515869 -29.31228522 124.63290032 -46.0625 121.375 C-51.6252742 119.76501545 -56.40524612 116.73452034 -59.35546875 111.67578125 C-60.33756783 109.47403565 -61.19585676 107.27159108 -62 105 C-62.33 104.34 -62.66 103.68 -63 103 C-63.2980661 100.12131393 -63.54532696 97.25654769 -63.75390625 94.37109375 C-63.81907944 93.50742691 -63.88425262 92.64376007 -63.95140076 91.75392151 C-64.08870712 89.9206539 -64.22390626 88.08722745 -64.35717773 86.25366211 C-64.55993433 83.47269025 -64.7706438 80.69240707 -64.98242188 77.91210938 C-65.11506484 76.12763989 -65.24724068 74.34313561 -65.37890625 72.55859375 C-65.47263268 71.32525551 -65.47263268 71.32525551 -65.56825256 70.06700134 C-66.37891392 58.74611222 -66.57083082 50.52583039 -58.8125 41.4375 C-57.884375 40.633125 -56.95625 39.82875 -56 39 C-55.20851563 38.25363281 -54.41703125 37.50726563 -53.6015625 36.73828125 C-46.46699043 30.0744654 -46.46699043 30.0744654 -42 29 C-41.67 28.01 -41.34 27.02 -41 26 C-39.7934375 25.5359375 -39.7934375 25.5359375 -38.5625 25.0625 C-35.88433775 24.29420883 -35.88433775 24.29420883 -35.1796875 22.1875 C-33.55218952 19.16962296 -31.37026746 17.87273414 -28.5625 15.9375 C-24.73246945 13.31985393 -24.73246945 13.31985393 -21.27734375 10.25390625 C-20 9 -20 9 -18 9 C-18 8.34 -18 7.68 -18 7 C-17.2575 6.7525 -16.515 6.505 -15.75 6.25 C-12.78369755 4.9016807 -11.20602206 3.35816151 -9 1 C-5.8997157 -0.55014215 -3.32808906 -0.73300718 0 0 Z M-8 20 C-9.15149016 24.59079703 -9.15149016 24.59079703 -7.9375 28.9375 C-5.14511207 30.46880951 -3.12606798 30.39907251 0 30 C2.33296251 27.17282787 2.33296251 27.17282787 1.75 23.9375 C1.2406756 20.900541 1.2406756 20.900541 -1 19 C-4.89459074 18.78918149 -4.89459074 18.78918149 -8 20 Z " fill="#5820FA" transform="translate(139,96)"/>
<path d="M0 0 C5.8485286 3.42083748 8.76944897 6.2715389 10.57647705 12.84747314 C11.42260648 17.14786895 11.32607227 21.49858543 11.3359375 25.8671875 C11.3459227 27.41842819 11.3459227 27.41842819 11.35610962 29.00100708 C11.36620071 31.18115469 11.37092774 33.36133297 11.37060547 35.54150391 C11.37497709 38.8576193 11.41133141 42.17240102 11.44921875 45.48828125 C11.45508813 47.61457882 11.45905671 49.74088266 11.4609375 51.8671875 C11.47530853 52.84871796 11.48967957 53.83024841 11.50448608 54.84152222 C11.4505619 63.05926826 9.57092767 69.64122005 3.75 75.625 C-4.96143569 82.61028084 -16.72861822 85.98250232 -27.12768555 89.71972656 C-31.73758874 91.4133686 -35.98962493 93.49295208 -40.3125 95.8125 C-47.66278213 99.59647212 -53.6767211 100.77960767 -61.8125 99.3125 C-65.23538992 97.90307474 -67.95439647 96.09385242 -71 94 C-74.1923887 92.58798192 -77.40598068 91.24501093 -80.6328125 89.9140625 C-83.24290712 88.74658428 -85.64225478 87.61982496 -88 86 C-89.125 82.6875 -89.125 82.6875 -89 80 C-86.35261084 78.5393715 -85.10551666 78 -82 78 C-81.505 77.01 -81.505 77.01 -81 76 C-78.69154175 75.12427519 -76.41765971 74.35171876 -74.0625 73.625 C-68.69420807 71.90841718 -63.45963103 70.0432962 -58.24609375 67.89453125 C-56.07914101 67.03151877 -53.90618451 66.2806637 -51.6875 65.5625 C-45.70051018 63.6056217 -39.83474863 61.37058711 -34 59 C-32.54013672 58.4121875 -32.54013672 58.4121875 -31.05078125 57.8125 C-25.33592706 55.30805132 -25.33592706 55.30805132 -21.9375 50.3125 C-21.4734375 48.6728125 -21.4734375 48.6728125 -21 47 C-20.505 46.01 -20.505 46.01 -20 45 C-19.47279023 38.88436665 -20.11413244 33.94564963 -24 29 C-28.96308359 24.86537549 -33.75153202 23.95706457 -39.9375 22.9375 C-46.01441453 21.90437942 -51.49059077 20.85020104 -57 18 C-57.9375 15.8125 -57.9375 15.8125 -58 14 C-53.73741495 10.94405441 -49.58110989 8.87164936 -44.625 7.125 C-43.21735553 6.61353544 -41.80980638 6.10180848 -40.40234375 5.58984375 C-39.68159668 5.33058105 -38.96084961 5.07131836 -38.21826172 4.80419922 C-34.52839 3.46648874 -30.8592494 2.07400523 -27.1875 0.6875 C-17.34974495 -3.01896987 -9.79657674 -4.8569526 0 0 Z " fill="#0F109B" transform="translate(185,160)"/>
<path d="M0 0 C2.96875 -0.328125 2.96875 -0.328125 6.5 -0.25 C7.6653125 -0.23453125 8.830625 -0.2190625 10.03125 -0.203125 C13 0 13 0 15 1 C15.17204527 8.60476491 15.33109653 16.20973151 15.48217773 23.81494141 C15.53470386 26.38824254 15.58993085 28.96149032 15.64819336 31.53466797 C15.9658416 45.64929861 16.07643414 59.7183089 15.58984375 73.828125 C15.54896133 75.03813171 15.50807892 76.24813843 15.46595764 77.49481201 C15.13012878 85.86987122 15.13012878 85.86987122 14 87 C11.64686445 87.07271741 9.29166332 87.08370868 6.9375 87.0625 C5.00197266 87.04896484 5.00197266 87.04896484 3.02734375 87.03515625 C2.02832031 87.02355469 1.02929688 87.01195312 0 87 C-0.33 85.68 -0.66 84.36 -1 83 C-1.55429687 83.2165625 -2.10859375 83.433125 -2.6796875 83.65625 C-3.40414062 83.9346875 -4.12859375 84.213125 -4.875 84.5 C-5.59429687 84.7784375 -6.31359375 85.056875 -7.0546875 85.34375 C-9 86 -9 86 -11 86 C-11.33 86.66 -11.66 87.32 -12 88 C-18.86834672 89.5208482 -25.35644937 89.17101744 -32 87 C-32.763125 86.75378906 -33.52625 86.50757813 -34.3125 86.25390625 C-41.32201032 83.58981871 -46.18765998 78.96988767 -49.3125 72.125 C-49.6528125 71.073125 -49.6528125 71.073125 -50 70 C-50.66 69.34 -51.32 68.68 -52 68 C-51.67 67.01 -51.34 66.02 -51 65 C-51.66 65 -52.32 65 -53 65 C-52.88496731 62.4783624 -52.75825223 59.9581881 -52.625 57.4375 C-52.57859375 56.38079102 -52.57859375 56.38079102 -52.53125 55.30273438 C-51.90072409 43.90072409 -51.90072409 43.90072409 -48 40 C-47.608125 39.2575 -47.21625 38.515 -46.8125 37.75 C-42.33759853 30.96049432 -35.86258188 26.90413547 -28 25 C-19.14519266 24.0037071 -11.92512157 24.92281969 -4 29 C-3.34 29.33 -2.68 29.66 -2 30 C-2.01571045 28.79670044 -2.01571045 28.79670044 -2.03173828 27.5690918 C-2.07325767 23.94192628 -2.09931343 20.31481072 -2.125 16.6875 C-2.14175781 15.42486328 -2.15851563 14.16222656 -2.17578125 12.86132812 C-2.18544922 11.04858398 -2.18544922 11.04858398 -2.1953125 9.19921875 C-2.21102295 7.52605591 -2.21102295 7.52605591 -2.22705078 5.8190918 C-2 3 -2 3 0 0 Z M-31 45 C-32.97806411 48.03411107 -32.97806411 48.03411107 -34 51 C-34.33 51.66 -34.66 52.32 -35 53 C-35.04022391 55.3329866 -35.04320247 57.66706666 -35 60 C-34.34 60 -33.68 60 -33 60 C-33.33 60.99 -33.66 61.98 -34 63 C-31.99023569 66.81552999 -29.30766483 70.15178497 -25.6875 72.5 C-19.12517807 73.7208971 -13.75890153 73.74998239 -8 70 C-5.62280307 68.12498069 -5.62280307 68.12498069 -4 66 C-4 65.01 -4 64.02 -4 63 C-3.34 63 -2.68 63 -2 63 C-0.89459074 60.21081851 -0.89459074 60.21081851 -1 58 C-0.896875 57.13375 -0.79375 56.2675 -0.6875 55.375 C-1.11222901 50.78792666 -3.01635301 47.48615595 -6 44 C-9.04212938 42.04611203 -10.19400015 42 -14 42 C-14 41.34 -14 40.68 -14 40 C-20.91593337 39.27959027 -25.75086374 40.24490009 -31 45 Z " fill="#0B1055" transform="translate(441,132)"/>
<path d="M0 0 C0.70253906 0.00386719 1.40507812 0.00773438 2.12890625 0.01171875 C2.83144531 0.00785156 3.53398437 0.00398437 4.2578125 0 C9.50229247 0.01010497 9.50229247 0.01010497 10.62890625 1.13671875 C10.7166623 3.28230702 10.73585844 5.43076296 10.7265625 7.578125 C10.72333984 8.88330078 10.72011719 10.18847656 10.71679688 11.53320312 C10.70844026 12.92187565 10.6999753 14.31054752 10.69140625 15.69921875 C10.68639291 17.09179531 10.68182972 18.48437356 10.67773438 19.87695312 C10.66590059 23.29691745 10.64941505 26.71679719 10.62890625 30.13671875 C11.42554688 29.72099609 11.42554688 29.72099609 12.23828125 29.296875 C12.9446875 28.93464844 13.65109375 28.57242188 14.37890625 28.19921875 C15.075 27.83957031 15.77109375 27.47992188 16.48828125 27.109375 C24.21145516 23.60012262 33.06562262 24.18885639 40.87890625 27.07421875 C48.8252219 30.78735316 53.7478828 36.33330873 57.12890625 44.38671875 C59.96227995 53.44339541 59.74370093 62.72012937 56.07421875 71.49609375 C51.78087567 79.34014759 46.26533413 85.02460507 37.5859375 87.5859375 C29.2075958 89.14650049 21.57605407 88.62867281 13.5546875 85.79296875 C11.65247726 85.02919987 11.65247726 85.02919987 9.62890625 85.13671875 C9.62890625 85.79671875 9.62890625 86.45671875 9.62890625 87.13671875 C4.34890625 87.13671875 -0.93109375 87.13671875 -6.37109375 87.13671875 C-6.39364412 75.94098272 -6.41200845 64.74526165 -6.42290592 53.54950809 C-6.42813491 48.3514376 -6.43523285 43.15338339 -6.4465332 37.95532227 C-6.45736151 32.94329607 -6.46337046 27.93128557 -6.46597099 22.91924858 C-6.46782534 21.00259593 -6.47144615 19.08594418 -6.47682381 17.16929817 C-6.4840335 14.49443803 -6.48508472 11.81964361 -6.48461914 9.14477539 C-6.48821442 8.34420715 -6.49180969 7.54363892 -6.49551392 6.71881104 C-6.48350788 0.38688183 -6.38624906 0.01230491 0 0 Z M11.69140625 48.01171875 C9.33162667 54.95224692 9.41193036 59.24334288 12.4140625 65.89453125 C14.14168171 69.08312747 15.33514635 70.5248788 18.62890625 72.13671875 C24.40787957 73.29599997 29.251498 73.86993784 34.62890625 71.13671875 C38.53650281 68.01582858 40.91323147 64.62088241 41.62890625 59.63671875 C41.87761355 54.01210749 41.00360077 49.77149061 37.31640625 45.38671875 C32.86173544 41.65722691 29.82461379 39.4697101 23.75390625 39.72265625 C18.47903017 40.75048137 14.65059047 43.6206712 11.69140625 48.01171875 Z M9.62890625 81.13671875 C10.62890625 84.13671875 10.62890625 84.13671875 10.62890625 84.13671875 Z " fill="#481CF8" transform="translate(472.37109375,131.86328125)"/>
<path d="M0 0 C0.70125 0.721875 1.4025 1.44375 2.125 2.1875 C2.85783203 2.89132813 2.85783203 2.89132813 3.60546875 3.609375 C9.88558732 10.12209055 12.31167479 17.87228737 12.625 26.8125 C12.44833129 32.74856852 10.90743196 37.02491541 8.125 42.1875 C7.795 43.1775 7.465 44.1675 7.125 45.1875 C5.48895804 46.55823786 3.81821939 47.88805256 2.125 49.1875 C1.51140625 49.84492188 0.8978125 50.50234375 0.265625 51.1796875 C-5.60640525 56.6873947 -14.6923114 57.96247268 -22.46484375 58.3515625 C-30.99490641 57.94118148 -40.82169233 55.59779761 -46.875 49.1875 C-54.01805022 40.41301238 -56.63870027 33.47498993 -55.875 22.1875 C-54.99664816 15.77911668 -54.08991131 9.53325943 -48.875 5.1875 C-48.215 5.1875 -47.555 5.1875 -46.875 5.1875 C-46.79378906 4.58164063 -46.71257812 3.97578125 -46.62890625 3.3515625 C-45.38142576 -0.22928824 -42.56039046 -1.05652132 -39.3203125 -2.70703125 C-26.80553699 -8.36466938 -11.62233613 -7.32712495 0 0 Z M-35.26953125 15.7265625 C-37.97237286 19.75694823 -38.59621107 23.81528425 -38.390625 28.6171875 C-37.45416551 33.28529616 -35.12831658 36.76964787 -31.875 40.1875 C-27.28755531 42.73608038 -22.03126395 42.77996121 -16.875 42.1875 C-11.21961884 40.16009921 -8.33620512 37.03684998 -5.625 31.75 C-4.17674495 26.80179524 -4.48256629 22.7445166 -6.875 18.1875 C-10.31154856 13.27814492 -12.98905362 11.01417301 -18.875 9.1875 C-25.70933245 8.19341528 -30.71401696 10.69890808 -35.26953125 15.7265625 Z " fill="#0B1154" transform="translate(345.875,162.8125)"/>
<path d="M0 0 C6.11667792 7.01618938 7.86526639 14.15045508 7.61328125 23.2578125 C7.60620651 24.24248505 7.59913177 25.22715759 7.59184265 26.2416687 C7.56412378 29.34942543 7.50142921 32.4552991 7.4375 35.5625 C7.41238799 37.68486959 7.38957995 39.80726777 7.36914062 41.9296875 C7.31437113 47.09967049 7.22825757 52.26826737 7.125 57.4375 C2.175 57.4375 -2.775 57.4375 -7.875 57.4375 C-8.205 56.4475 -8.535 55.4575 -8.875 54.4375 C-9.52984375 54.72625 -10.1846875 55.015 -10.859375 55.3125 C-19.52520318 58.83758265 -27.8747357 60.3401748 -36.8125 56.8125 C-41.24981807 54.54149511 -44.87495778 51.51657736 -46.46875 46.609375 C-47.50707334 41.05833868 -48.28365224 35.17531941 -45.62890625 30.015625 C-40.66567298 23.91761091 -34.35839019 20.74977887 -26.625 19.6875 C-20.72385335 19.23679075 -14.78851082 19.35524096 -8.875 19.4375 C-10.79891649 14.12338506 -10.79891649 14.12338506 -14.875 10.4375 C-18.64404461 9.7554824 -22.33128171 9.60651293 -25.76171875 11.453125 C-28.4248242 13.59392648 -29.78852869 15.17808608 -30.875 18.4375 C-35.72188192 17.65574485 -40.2516367 16.03905722 -44.875 14.4375 C-45.205 12.7875 -45.535 11.1375 -45.875 9.4375 C-45.215 9.4375 -44.555 9.4375 -43.875 9.4375 C-43.6275 8.880625 -43.38 8.32375 -43.125 7.75 C-39.47261291 0.99308388 -35.33857622 -1.46570086 -28.125 -3.75 C-18.50700862 -5.90355405 -8.6938868 -4.72493848 0 0 Z M-30.875 37.4375 C-31.205 38.0975 -31.535 38.7575 -31.875 39.4375 C-31.03971467 41.86742095 -30.26077338 43.15174194 -28.1875 44.6875 C-23.39246627 46.24264607 -19.18983161 45.83917536 -14.5625 44 C-11.98397539 42.62844435 -11.06347492 41.88813346 -9.92578125 39.16796875 C-9.42569745 36.91581829 -9.07135036 34.73479926 -8.875 32.4375 C-11.60583902 32.30201185 -14.32991807 32.20320145 -17.0625 32.125 C-18.21588867 32.0621582 -18.21588867 32.0621582 -19.39257812 31.99804688 C-24.96175932 31.87853655 -27.31332005 32.82460578 -30.875 37.4375 Z " fill="#481BF7" transform="translate(581.875,161.5625)"/>
<path d="M0 0 C2.70108504 0.090916 5.36930311 0.23740766 8.0625 0.4375 C9.20041992 0.51581055 9.20041992 0.51581055 10.36132812 0.59570312 C12.24121722 0.72575835 14.12065685 0.86228038 16 1 C18.50709303 7.37048229 20.95510361 13.73470279 23.0625 20.25 C24.52179497 24.74105472 26.23599286 28.99558501 28.265625 33.2578125 C29 35 29 35 29 37 C29.66 37 30.32 37 31 37 C31.23783203 35.92685547 31.23783203 35.92685547 31.48046875 34.83203125 C33.33497269 26.91196745 35.97785138 19.54060534 39 12 C39.56721817 10.46006302 40.13053326 8.91867432 40.6875 7.375 C42 4 42 4 44 1 C46.7885289 0.77892213 49.34653181 0.71892465 52.125 0.8125 C52.87910156 0.82603516 53.63320313 0.83957031 54.41015625 0.85351562 C56.27374127 0.88890015 58.13695978 0.94270833 60 1 C59.49137826 7.56653437 57.72680776 12.88648168 55.1875 18.9375 C54.67219727 20.20110352 54.67219727 20.20110352 54.14648438 21.49023438 C51.24221677 28.568365 48.12488197 35.54571207 44.9375 42.5 C43.60485453 45.48159978 42.48762764 48.45013831 41.5 51.5625 C40.31534928 55.27097181 38.77539057 58.59333892 36.9609375 62.03125 C35.99428213 64.01171465 35.3091418 65.96983097 34.625 68.0625 C32.51857042 73.79604362 28.79770342 78.18315017 23.625 81.4375 C17.35323563 84.32743064 9.7306495 83.2940575 3 83 C2.75099354 81.06494977 2.52643758 79.12674066 2.3125 77.1875 C2.18488281 76.10855469 2.05726563 75.02960938 1.92578125 73.91796875 C2 71 2 71 3.2421875 69.10546875 C5.77275033 67.51402591 8.04064683 68.09509425 10.9296875 68.20703125 C14.79232114 67.82076789 16.43226904 65.8182413 19 63 C20.51520336 59.61307485 20.11259989 58.30224181 18.8125 54.8125 C18.20931005 53.54120279 17.60507293 52.27040209 17 51 C16.40449662 49.56749878 15.82231009 48.12942413 15.25 46.6875 C14.91355469 45.84445313 14.57710937 45.00140625 14.23046875 44.1328125 C13.26430631 41.67293226 12.31005489 39.20953699 11.36328125 36.7421875 C8.44599116 29.15290659 5.51476296 21.62002661 2.04296875 14.26171875 C-0.10627409 9.60100112 -1.35534807 6.21177166 -1 1 C-0.67 0.67 -0.34 0.34 0 0 Z " fill="#4C1CF8" transform="translate(592,158)"/>
<path d="M0 0 C0.72058594 0.32484375 1.44117188 0.6496875 2.18359375 0.984375 C4.86958357 2.48621877 5.80363101 4.20847236 7 7 C6.25 9.1875 6.25 9.1875 5 11 C4.67 11.66 4.34 12.32 4 13 C2.29296875 14.140625 2.29296875 14.140625 0.1875 15.25 C-0.49957031 15.62640625 -1.18664062 16.0028125 -1.89453125 16.390625 C-4 17 -4 17 -6.125 16.2421875 C-8 15 -8 15 -10.1875 12.875 C-14.02966462 10.31355692 -17.48732991 10.2732404 -22 11 C-22.99 11.66 -23.98 12.32 -25 13 C-24.67 14.98 -24.34 16.96 -24 19 C-22.700625 19.12375 -21.40125 19.2475 -20.0625 19.375 C-10.49185464 20.47007384 -1.12748567 21.97270962 5.5 29.5625 C8.84006189 34.40922024 8.88505915 39.30668682 8 45 C6.13879723 50.87061621 2.4875349 54.05748056 -2.81640625 57.01171875 C-14.381594 61.96132937 -26.66471914 59.9706161 -38.0625 55.5625 C-41.00622615 53.99668822 -42.94919915 52.62502509 -45 50 C-45 49.01 -45 48.02 -45 47 C-45.66 47 -46.32 47 -47 47 C-45.52604425 43.20746218 -43.56377551 41.71683674 -40.125 39.625 C-39.26132813 39.08101562 -38.39765625 38.53703125 -37.5078125 37.9765625 C-35 37 -35 37 -32.8046875 37.70703125 C-31 39 -31 39 -29 41.0625 C-25.88434616 44.08078966 -22.71817498 44.15138549 -18.5 44.1875 C-17.7471875 44.20167969 -16.994375 44.21585938 -16.21875 44.23046875 C-13.75135827 43.97417278 -12.13643744 43.22845153 -10 42 C-10 41.01 -10 40.02 -10 39 C-15.03024413 36.30084461 -19.8741573 34.38895159 -25.57421875 33.6796875 C-32.80713437 32.73143915 -38.01539166 30.49466129 -43 25 C-44.22181101 21.87398354 -44.13406301 18.76815554 -44.125 15.4375 C-44.12886719 14.01244141 -44.12886719 14.01244141 -44.1328125 12.55859375 C-44 10 -44 10 -43 7 C-42.34 7 -41.68 7 -41 7 C-40.690625 6.38125 -40.38125 5.7625 -40.0625 5.125 C-38.36176191 1.72352382 -37.63254143 0.61847569 -34.1875 -1.0625 C-33.50042969 -1.40410156 -32.81335938 -1.74570313 -32.10546875 -2.09765625 C-21.87536905 -6.48198469 -9.75772019 -4.60174756 0 0 Z " fill="#0B1054" transform="translate(278,161)"/>
<path d="M0 0 C1.02770508 -0.01160156 1.02770508 -0.01160156 2.07617188 -0.0234375 C7.1841133 -0.0033867 7.1841133 -0.0033867 9.4375 2.25 C9.63073505 4.92513013 9.69977972 7.49630369 9.68041992 10.17211914 C9.68231827 10.99010483 9.68421661 11.80809052 9.68617249 12.65086365 C9.68988591 15.36239112 9.6791689 18.07365247 9.66796875 20.78515625 C9.66677726 22.6632026 9.66632372 24.54124955 9.6665802 26.41929626 C9.66501441 30.35777509 9.6567168 34.29616315 9.64331055 38.23461914 C9.6263089 43.29469527 9.62249648 48.35467164 9.62325573 53.41477299 C9.62298443 57.2930955 9.61750983 61.17139601 9.61025429 65.04971123 C9.60706203 66.9161201 9.60509892 68.78253149 9.60436058 70.64894295 C9.60220355 73.25176409 9.59347359 75.85447726 9.58276367 78.45727539 C9.58344345 79.6253624 9.58344345 79.6253624 9.58413696 80.81704712 C9.55197464 86.13552536 9.55197464 86.13552536 8.4375 87.25 C5.61333618 87.37663091 2.82455207 87.43520548 0 87.4375 C-0.78955078 87.44974609 -1.57910156 87.46199219 -2.39257812 87.47460938 C-4.45057435 87.47987279 -6.50812009 87.37206285 -8.5625 87.25 C-9.2225 86.59 -9.8825 85.93 -10.5625 85.25 C-10.52610906 82.69422124 -10.37096211 80.23318516 -10.1484375 77.69140625 C-9.51343735 68.60269474 -9.57854657 59.56595797 -9.7890625 50.46484375 C-9.81965113 49.05205479 -9.85014779 47.63926384 -9.8805542 46.22647095 C-10.00955724 40.38428078 -10.15065697 34.54246005 -10.30664062 28.70092773 C-10.40257491 25.08068684 -10.48391855 21.46036139 -10.5560112 17.839571 C-10.58624822 16.47066169 -10.62217182 15.10186554 -10.66392899 13.7332592 C-10.72146851 11.83938544 -10.75895403 9.944934 -10.79541016 8.05053711 C-10.82285309 6.9753331 -10.85029602 5.90012909 -10.87857056 4.79234314 C-10.77426727 3.9533699 -10.66996399 3.11439667 -10.5625 2.25 C-6.92564463 -0.17457025 -4.20017221 -0.04768407 0 0 Z " fill="#1F2460" transform="translate(373.5625,131.75)"/>
<path d="M0 0 C1.17691406 0.00257813 2.35382813 0.00515625 3.56640625 0.0078125 C5.32791016 0.00394531 5.32791016 0.00394531 7.125 0 C10.12890625 0.1328125 10.12890625 0.1328125 12.12890625 1.1328125 C12.30095152 8.73757741 12.46000278 16.34254401 12.61108398 23.94775391 C12.66361011 26.52105504 12.7188371 29.09430282 12.77709961 31.66748047 C13.09474785 45.78211111 13.20534039 59.8511214 12.71875 73.9609375 C12.65742638 75.77594757 12.65742638 75.77594757 12.59486389 77.62762451 C12.25903503 86.00268372 12.25903503 86.00268372 11.12890625 87.1328125 C8.7757707 87.20552991 6.42056957 87.21652118 4.06640625 87.1953125 C2.13087891 87.18177734 2.13087891 87.18177734 0.15625 87.16796875 C-0.84277344 87.15636719 -1.84179688 87.14476562 -2.87109375 87.1328125 C-3.20109375 85.8128125 -3.53109375 84.4928125 -3.87109375 83.1328125 C-5.85109375 83.6278125 -5.85109375 83.6278125 -7.87109375 84.1328125 C-7.87109375 82.8128125 -7.87109375 81.4928125 -7.87109375 80.1328125 C-8.86109375 79.8028125 -9.85109375 79.4728125 -10.87109375 79.1328125 C-9.4807081 73.99908088 -7.78648422 69.09541507 -5.87109375 64.1328125 C-4.88109375 64.1328125 -3.89109375 64.1328125 -2.87109375 64.1328125 C-3.21598173 57.00512755 -4.71559231 51.05804231 -8.87109375 45.1328125 C-10.92969623 43.83320803 -10.92969623 43.83320803 -12.87109375 43.1328125 C-11.88109375 42.6378125 -11.88109375 42.6378125 -10.87109375 42.1328125 C-9.79498835 38.55746231 -9.79498835 38.55746231 -10.87109375 35.1328125 C-8.87109375 33.1328125 -8.87109375 33.1328125 -5.74609375 33.0078125 C-4.79734375 33.0490625 -3.84859375 33.0903125 -2.87109375 33.1328125 C-2.90662354 32.16867432 -2.94215332 31.20453613 -2.97875977 30.21118164 C-3.10877922 26.64624938 -3.23206162 23.08111091 -3.35327148 19.51586914 C-3.40675995 17.9705566 -3.46209443 16.42530683 -3.51928711 14.88012695 C-3.60100808 12.66371199 -3.67616545 10.44715866 -3.75 8.23046875 C-3.77703506 7.5356691 -3.80407013 6.84086945 -3.83192444 6.12501526 C-3.88410483 4.46171474 -3.88294482 2.79688911 -3.87109375 1.1328125 C-2.87109375 0.1328125 -2.87109375 0.1328125 0 0 Z " fill="#0A1056" transform="translate(443.87109375,131.8671875)"/>
<path d="M0 0 C4.29 0 8.58 0 13 0 C14.85286633 1.85286633 14.1304783 4.89400449 14.1328125 7.37109375 C14.13474609 9.31532227 14.13474609 9.31532227 14.13671875 11.29882812 C14.13357666 12.31698608 14.13357666 12.31698608 14.13037109 13.35571289 C14.1250313 15.42536789 14.13031193 17.494805 14.13671875 19.56445312 C14.13542969 20.86189453 14.13414062 22.15933594 14.1328125 23.49609375 C14.13168457 24.69419678 14.13055664 25.8922998 14.12939453 27.12670898 C14 30 14 30 13 32 C13.33 31.505 13.66 31.01 14 30.5 C16.72377387 28.4571696 18.79205702 28.5850313 22.125 28.6953125 C24 29 24 29 26 30.5 C26.33 30.995 26.66 31.49 27 32 C26.01 32 25.02 32 24 32 C24 32.66 24 33.32 24 34 C24.66 34.33 25.32 34.66 26 35 C25.34 35.99 24.68 36.98 24 38 C24.66 38.33 25.32 38.66 26 39 C24.906875 39.53625 23.81375 40.0725 22.6875 40.625 C17.84389643 43.41374145 16.69299569 46.87770069 15 52.0625 C15 57.35439577 16.82927704 61.37232084 18.87109375 66.20703125 C20 69 20 69 20 71 C20.66 71.33 21.32 71.66 22 72 C20.35 72 18.7 72 17 72 C17.33 72.99 17.66 73.98 18 75 C17.34 75 16.68 75 16 75 C16.33 76.98 16.66 78.96 17 81 C16.67 80.01 16.34 79.02 16 78 C14.68 78 13.36 78 12 78 C12 79.65 12 81.3 12 83 C8.04 83 4.08 83 0 83 C0 55.61 0 28.22 0 0 Z " fill="#481CF8" transform="translate(468,134)"/>
<path d="M0 0 C6.11667792 7.01618938 7.86526639 14.15045508 7.61328125 23.2578125 C7.60620651 24.24248505 7.59913177 25.22715759 7.59184265 26.2416687 C7.56412378 29.34942543 7.50142921 32.4552991 7.4375 35.5625 C7.41238799 37.68486959 7.38957995 39.80726777 7.36914062 41.9296875 C7.31437113 47.09967049 7.22825757 52.26826737 7.125 57.4375 C2.175 57.4375 -2.775 57.4375 -7.875 57.4375 C-8.205 56.4475 -8.535 55.4575 -8.875 54.4375 C-9.52984375 54.72625 -10.1846875 55.015 -10.859375 55.3125 C-17.89181632 58.1731541 -24.27794263 59.44575144 -31.875 58.4375 C-32.865 57.7775 -33.855 57.1175 -34.875 56.4375 C-30.585 56.7675 -26.295 57.0975 -21.875 57.4375 C-21.875 56.7775 -21.875 56.1175 -21.875 55.4375 C-20.12514646 54.95779877 -18.37511109 54.47876076 -16.625 54 C-15.65046875 53.73316406 -14.6759375 53.46632812 -13.671875 53.19140625 C-11.41127347 52.58205416 -9.14877991 51.99511745 -6.875 51.4375 C-6.38 53.4175 -6.38 53.4175 -5.875 55.4375 C-2.245 55.4375 1.385 55.4375 5.125 55.4375 C5.0513623 54.67091064 4.97772461 53.90432129 4.90185547 53.11450195 C4.04417724 43.31887502 4.10824268 33.63735929 4.33984375 23.81445312 C4.4196406 16.92653447 4.11868286 11.68348231 1.125 5.4375 C-1.185 6.0975 -3.495 6.7575 -5.875 7.4375 C-6.39575069 10.75728564 -6.875 13.94805425 -6.875 17.3125 C-6.875 18.01375 -6.875 18.715 -6.875 19.4375 C-7.875 20.4375 -7.875 20.4375 -11.03515625 20.53515625 C-12.32292969 20.52355469 -13.61070312 20.51195312 -14.9375 20.5 C-16.22785156 20.49097656 -17.51820313 20.48195312 -18.84765625 20.47265625 C-19.84667969 20.46105469 -20.84570312 20.44945312 -21.875 20.4375 C-21.875 20.1075 -21.875 19.7775 -21.875 19.4375 C-17.585 19.4375 -13.295 19.4375 -8.875 19.4375 C-10.79891649 14.12338506 -10.79891649 14.12338506 -14.875 10.4375 C-18.64404461 9.7554824 -22.33128171 9.60651293 -25.76171875 11.453125 C-28.4248242 13.59392648 -29.78852869 15.17808608 -30.875 18.4375 C-35.72188192 17.65574485 -40.2516367 16.03905722 -44.875 14.4375 C-45.205 12.7875 -45.535 11.1375 -45.875 9.4375 C-45.215 9.4375 -44.555 9.4375 -43.875 9.4375 C-43.6275 8.880625 -43.38 8.32375 -43.125 7.75 C-39.47261291 0.99308388 -35.33857622 -1.46570086 -28.125 -3.75 C-18.50700862 -5.90355405 -8.6938868 -4.72493848 0 0 Z " fill="#4E1EF8" transform="translate(581.875,161.5625)"/>
<path d="M0 0 C0.70253906 0.00386719 1.40507812 0.00773438 2.12890625 0.01171875 C2.83144531 0.00785156 3.53398437 0.00398437 4.2578125 0 C9.50229247 0.01010497 9.50229247 0.01010497 10.62890625 1.13671875 C10.7166623 3.28230702 10.73585844 5.43076296 10.7265625 7.578125 C10.72333984 8.88330078 10.72011719 10.18847656 10.71679688 11.53320312 C10.70844026 12.92187565 10.6999753 14.31054752 10.69140625 15.69921875 C10.68639291 17.09179531 10.68182972 18.48437356 10.67773438 19.87695312 C10.66590059 23.29691745 10.64941505 26.71679719 10.62890625 30.13671875 C11.42554688 29.72099609 11.42554688 29.72099609 12.23828125 29.296875 C12.9446875 28.93464844 13.65109375 28.57242188 14.37890625 28.19921875 C15.075 27.83957031 15.77109375 27.47992188 16.48828125 27.109375 C20.68369573 25.20306441 24.28927485 25.02433145 28.87890625 25.07421875 C30.49539063 25.08775391 30.49539063 25.08775391 32.14453125 25.1015625 C32.964375 25.11316406 33.78421875 25.12476563 34.62890625 25.13671875 C34.62890625 25.46671875 34.62890625 25.79671875 34.62890625 26.13671875 C33.89285156 26.19730469 33.15679687 26.25789063 32.3984375 26.3203125 C30.93470703 26.44599609 30.93470703 26.44599609 29.44140625 26.57421875 C28.47847656 26.65542969 27.51554687 26.73664063 26.5234375 26.8203125 C23.84241023 27.11338026 21.26260765 27.56375629 18.62890625 28.13671875 C18.62890625 29.12671875 18.62890625 30.11671875 18.62890625 31.13671875 C16.31890625 31.13671875 14.00890625 31.13671875 11.62890625 31.13671875 C11.29890625 32.12671875 10.96890625 33.11671875 10.62890625 34.13671875 C9.96890625 34.13671875 9.30890625 34.13671875 8.62890625 34.13671875 C8.62890625 23.90671875 8.62890625 13.67671875 8.62890625 3.13671875 C4.33890625 2.80671875 0.04890625 2.47671875 -4.37109375 2.13671875 C-4.37109375 29.52671875 -4.37109375 56.91671875 -4.37109375 85.13671875 C-0.41109375 85.13671875 3.54890625 85.13671875 7.62890625 85.13671875 C7.62890625 83.48671875 7.62890625 81.83671875 7.62890625 80.13671875 C8.94890625 80.13671875 10.26890625 80.13671875 11.62890625 80.13671875 C11.62890625 81.12671875 11.62890625 82.11671875 11.62890625 83.13671875 C14.92890625 82.14671875 18.22890625 81.15671875 21.62890625 80.13671875 C21.29890625 81.45671875 20.96890625 82.77671875 20.62890625 84.13671875 C21.28890625 84.13671875 21.94890625 84.13671875 22.62890625 84.13671875 C22.62890625 84.79671875 22.62890625 85.45671875 22.62890625 86.13671875 C23.76328125 85.97171875 24.89765625 85.80671875 26.06640625 85.63671875 C30.59950919 85.06095791 35.06637863 85.04166609 39.62890625 85.13671875 C39.62890625 84.47671875 39.62890625 83.81671875 39.62890625 83.13671875 C41.93890625 82.80671875 44.24890625 82.47671875 46.62890625 82.13671875 C42.53656769 86.67387672 37.4625174 87.87139935 31.5 88.4296875 C25.08691395 88.58868963 19.60747794 87.9327441 13.5546875 85.79296875 C11.65247726 85.02919987 11.65247726 85.02919987 9.62890625 85.13671875 C9.62890625 85.79671875 9.62890625 86.45671875 9.62890625 87.13671875 C4.34890625 87.13671875 -0.93109375 87.13671875 -6.37109375 87.13671875 C-6.39364412 75.94098272 -6.41200845 64.74526165 -6.42290592 53.54950809 C-6.42813491 48.3514376 -6.43523285 43.15338339 -6.4465332 37.95532227 C-6.45736151 32.94329607 -6.46337046 27.93128557 -6.46597099 22.91924858 C-6.46782534 21.00259593 -6.47144615 19.08594418 -6.47682381 17.16929817 C-6.4840335 14.49443803 -6.48508472 11.81964361 -6.48461914 9.14477539 C-6.48821442 8.34420715 -6.49180969 7.54363892 -6.49551392 6.71881104 C-6.48350788 0.38688183 -6.38624906 0.01230491 0 0 Z M9.62890625 81.13671875 C10.62890625 84.13671875 10.62890625 84.13671875 10.62890625 84.13671875 Z " fill="#7F6BDF" transform="translate(472.37109375,131.86328125)"/>
<path d="M0 0 C0.33 0 0.66 0 1 0 C2.37842439 13.70725747 3.30963151 27.22139781 3 41 C3.99 41.33 4.98 41.66 6 42 C5.98839844 42.88042969 5.97679688 43.76085937 5.96484375 44.66796875 C5.95582031 45.82941406 5.94679688 46.99085938 5.9375 48.1875 C5.92589844 49.33605469 5.91429688 50.48460937 5.90234375 51.66796875 C5.98807168 54.59300586 6.32150977 57.16316291 7 60 C8.32 60 9.64 60 11 60 C11.33 61.65 11.66 63.3 12 65 C12.9590625 65.2165625 12.9590625 65.2165625 13.9375 65.4375 C16 66 16 66 17 67 C25.71136047 68.25443591 33.428084 67.87510662 42 66 C42 65.34 42 64.68 42 64 C45.27059268 62.58274317 48.60324747 61.44472356 52 60.375 C52.825 60.11460937 53.65 59.85421875 54.5 59.5859375 C57.08699309 58.97961099 59.35288399 58.89600616 62 59 C58.39480455 62.14515749 54.43710742 63.49102446 50 65.0625 C45.8851935 66.54219038 41.89620208 68.00171369 38 70 C29.67420314 71.93623183 20.5112194 71.97222984 12.86328125 67.84765625 C7.35884408 64.17463995 5.17252602 60.13707915 3 54 C2.67 53.34 2.34 52.68 2 52 C1.7019339 49.12131393 1.45467304 46.25654769 1.24609375 43.37109375 C1.18092056 42.50742691 1.11574738 41.64376007 1.04859924 40.75392151 C0.91129288 38.9206539 0.77609374 37.08722745 0.64282227 35.25366211 C0.44006567 32.47269025 0.2293562 29.69240707 0.01757812 26.91210938 C-0.11506484 25.12763989 -0.24724068 23.34313561 -0.37890625 21.55859375 C-0.47263268 20.32525551 -0.47263268 20.32525551 -0.56825256 19.06700134 C-1.5916678 4.77500341 -1.5916678 4.77500341 0 0 Z " fill="#654BE3" transform="translate(74,147)"/>
<path d="M0 0 C5.08593656 2.03437462 6.69798563 5.48467432 8.95248413 10.17767334 C10.64846979 14.74717503 10.62176332 18.99594494 10.48828125 23.8203125 C10.48120651 24.80498505 10.47413177 25.78965759 10.46684265 26.8041687 C10.43912378 29.91192543 10.37642921 33.0177991 10.3125 36.125 C10.28738799 38.24736959 10.26457995 40.36976777 10.24414062 42.4921875 C10.18937113 47.66217049 10.10325757 52.83076737 10 58 C5.05 58 0.1 58 -5 58 C-5.33 57.01 -5.66 56.02 -6 55 C-6.65484375 55.28875 -7.3096875 55.5775 -7.984375 55.875 C-15.01681632 58.7356541 -21.40294263 60.00825144 -29 59 C-29.99 58.34 -30.98 57.68 -32 57 C-27.71 57.33 -23.42 57.66 -19 58 C-19 57.34 -19 56.68 -19 56 C-17.25014646 55.52029877 -15.50011109 55.04126076 -13.75 54.5625 C-12.77546875 54.29566406 -11.8009375 54.02882812 -10.796875 53.75390625 C-8.53627347 53.14455416 -6.27377991 52.55761745 -4 52 C-3.67 53.32 -3.34 54.64 -3 56 C0.63 56 4.26 56 8 56 C7.9263623 55.23341064 7.85272461 54.46682129 7.77685547 53.67700195 C6.91917724 43.88137502 6.98324268 34.19985929 7.21484375 24.37695312 C7.2946406 17.48903447 6.99368286 12.24598231 4 6 C2.68 6.33 1.36 6.66 0 7 C-0.93423645 3.98968256 -1.04449911 3.13349732 0 0 Z " fill="#4B2DD7" transform="translate(579,161)"/>
<path d="M0 0 C0.66 0 1.32 0 2 0 C2.10192421 6.67100892 2.17168442 13.34181493 2.21972656 20.01342773 C2.23976707 22.28010563 2.26700711 24.54673232 2.30175781 26.81323242 C2.35060868 30.08264856 2.37304512 33.35137757 2.390625 36.62109375 C2.41127014 37.62458359 2.43191528 38.62807343 2.45318604 39.66197205 C2.45557728 47.26265374 0.99483885 53.5050633 -4.03515625 59.375 C-4.70417969 59.91125 -5.37320313 60.4475 -6.0625 61 C-6.73410156 61.556875 -7.40570313 62.11375 -8.09765625 62.6875 C-10 64 -10 64 -13 65 C-12.67 63.35 -12.34 61.7 -12 60 C-10.35 60 -8.7 60 -7 60 C-7 58.35 -7 56.7 -7 55 C-5.68 55 -4.36 55 -3 55 C-3 53.68 -3 52.36 -3 51 C-2.34 51 -1.68 51 -1 51 C-0.67 34.17 -0.34 17.34 0 0 Z " fill="#7679BA" transform="translate(194,175)"/>
<path d="M0 0 C0.33 0 0.66 0 1 0 C1 18.81 1 37.62 1 57 C-1 53 -1 53 -1 51 C-2.485 51.495 -2.485 51.495 -4 52 C-4.89761353 46.95092391 -5.08456932 43.01613312 -4 38 C-3.34 38 -2.68 38 -2 38 C-2 33.05 -2 28.1 -2 23 C-1.34 23 -0.68 23 0 23 C0 21.35 0 19.7 0 18 C-0.66 17.67 -1.32 17.34 -2 17 C-2 15.35 -2 13.7 -2 12 C-1.34 12 -0.68 12 0 12 C-0.08378906 11.21753906 -0.16757812 10.43507812 -0.25390625 9.62890625 C-0.40666016 8.11103516 -0.40666016 8.11103516 -0.5625 6.5625 C-0.66691406 5.55316406 -0.77132813 4.54382813 -0.87890625 3.50390625 C-0.91886719 2.67761719 -0.95882813 1.85132813 -1 1 C-0.67 0.67 -0.34 0.34 0 0 Z " fill="#0C1347" transform="translate(381,144)"/>
<path d="M0 0 C0.33 0 0.66 0 1 0 C2.37842439 13.70725747 3.30963151 27.22139781 3 41 C3.99 41.33 4.98 41.66 6 42 C5.98839844 42.90363281 5.97679688 43.80726563 5.96484375 44.73828125 C5.95582031 45.91777344 5.94679688 47.09726563 5.9375 48.3125 C5.92589844 49.48425781 5.91429688 50.65601563 5.90234375 51.86328125 C5.85100102 55.03059195 5.85100102 55.03059195 7 58 C4 57 4 57 2.86572266 54.99511719 C1.71918457 51.02847047 1.42519478 47.18659216 1.1484375 43.078125 C1.08467926 42.218703 1.02092102 41.35928101 0.95523071 40.47381592 C0.8221396 38.65860042 0.69294014 36.84309591 0.56738281 35.02734375 C0.37657457 32.27273129 0.17374164 29.51921456 -0.03125 26.765625 C-0.15956665 24.99484315 -0.28719286 23.22401111 -0.4140625 21.453125 C-0.47340973 20.64031067 -0.53275696 19.82749634 -0.59390259 18.99005127 C-1.5702508 4.71075239 -1.5702508 4.71075239 0 0 Z " fill="#6D4CE6" transform="translate(74,147)"/>
<path d="M0 0 C0.99 0 1.98 0 3 0 C3 0.99 3 1.98 3 3 C7.95 1.515 7.95 1.515 13 0 C12.67 1.32 12.34 2.64 12 4 C12.66 4 13.32 4 14 4 C14 4.66 14 5.32 14 6 C15.134375 5.835 16.26875 5.67 17.4375 5.5 C21.97060294 4.92423916 26.43747238 4.90494734 31 5 C31 4.34 31 3.68 31 3 C34.465 2.505 34.465 2.505 38 2 C33.90766144 6.53715797 28.83361115 7.7346806 22.87109375 8.29296875 C16.4580077 8.45197088 10.97857169 7.79602535 4.92578125 5.65625 C3.02357101 4.89248112 3.02357101 4.89248112 1 5 C1 5.66 1 6.32 1 7 C-4.28 7 -9.56 7 -15 7 C-15 6.67 -15 6.34 -15 6 C-10.05 6 -5.1 6 0 6 C0 4.02 0 2.04 0 0 Z M1 1 C2 4 2 4 2 4 Z " fill="#6F55EA" transform="translate(481,212)"/>
<path d="M0 0 C5.71103452 0.67988506 10.25260403 1.87036117 14 6.4375 C15 9 15 9 14.25 11.1875 C13.8375 11.785625 13.425 12.38375 13 13 C12.67 13.66 12.34 14.32 12 15 C10.29296875 16.140625 10.29296875 16.140625 8.1875 17.25 C7.50042969 17.62640625 6.81335938 18.0028125 6.10546875 18.390625 C4 19 4 19 1.86328125 18.296875 C0 17 0 17 -2 14 C0.97 14 3.94 14 7 14 C6.67 13.01 6.34 12.02 6 11 C6.99 10.34 7.98 9.68 9 9 C8.27731765 5.7014861 8.27731765 5.7014861 4.9375 4.3125 C3.968125 3.879375 2.99875 3.44625 2 3 C2 2.34 2 1.68 2 1 C1.34 0.67 0.68 0.34 0 0 Z " fill="#202461" transform="translate(270,159)"/>
<path d="M0 0 C0 0.33 0 0.66 0 1 C-2.64 1 -5.28 1 -8 1 C-8 0.34 -8 -0.32 -8 -1 C-18.19789966 -0.5480549 -18.19789966 -0.5480549 -28 2 C-28.33 2.66 -28.66 3.32 -29 4 C-30.32 4 -31.64 4 -33 4 C-33.226875 4.556875 -33.45375 5.11375 -33.6875 5.6875 C-35.38617978 8.68041199 -37.42072687 10.73527237 -40 13 C-40.99 13 -41.98 13 -43 13 C-43 12.34 -43 11.68 -43 11 C-42.34 11 -41.68 11 -41 11 C-40.7525 10.443125 -40.505 9.88625 -40.25 9.3125 C-36.59761291 2.55558388 -32.46357622 0.09679914 -25.25 -2.1875 C-16.33414102 -4.18384034 -8.59850078 -2.74628922 0 0 Z " fill="#755AE4" transform="translate(579,160)"/>
<path d="M0 0 C3.87773121 2.03789369 7.5022198 4.36243338 11 7 C11 7.33 11 7.66 11 8 C9.35 8 7.7 8 6 8 C6 7.34 6 6.68 6 6 C4.68 6.33 3.36 6.66 2 7 C1.67 5.68 1.34 4.36 1 3 C-0.43861294 3.08746284 -1.87597508 3.19565348 -3.3125 3.3125 C-4.11300781 3.37050781 -4.91351563 3.42851563 -5.73828125 3.48828125 C-8.39794739 4.09003646 -9.22819849 4.99058079 -11 7 C-11.70125 7.33 -12.4025 7.66 -13.125 8 C-15.3530435 8.91202978 -15.3530435 8.91202978 -16 12 C-18.31 12.33 -20.62 12.66 -23 13 C-21.625 11 -21.625 11 -20 9 C-19.34 9 -18.68 9 -18 9 C-18 8.34 -18 7.68 -18 7 C-17.2575 6.7525 -16.515 6.505 -15.75 6.25 C-12.78369755 4.9016807 -11.20602206 3.35816151 -9 1 C-5.89979529 -0.55010235 -3.32631469 -0.74373586 0 0 Z " fill="#825CEB" transform="translate(139,96)"/>
<path d="M0 0 C1.75763672 0.50660156 1.75763672 0.50660156 3.55078125 1.0234375 C11.97925889 3.42529343 20.31270481 5.71795423 29 7 C29.66 8.98 30.32 10.96 31 13 C30.34 13.66 29.68 14.32 29 15 C28.01 14.67 27.02 14.34 26 14 C26.66 14 27.32 14 28 14 C26.36587557 12.29159719 25.13093906 11.06546953 23 10 C23 9.34 23 8.68 23 8 C20.03 7.67 17.06 7.34 14 7 C14 7.66 14 8.32 14 9 C13.34 9 12.68 9 12 9 C11.67 8.34 11.34 7.68 11 7 C9.02 7 7.04 7 5 7 C5 6.34 5 5.68 5 5 C3.68 4.67 2.36 4.34 1 4 C0.67 2.68 0.34 1.36 0 0 Z " fill="#6C4EE4" transform="translate(110,191)"/>
<path d="M0 0 C0 0.99 0 1.98 0 3 C-1.66279327 4.0064275 -3.32983484 5.00585407 -5 6 C-5.69748583 7.31747324 -6.36959957 8.64914193 -7 10 C-7.99 10.33 -8.98 10.66 -10 11 C-14.14766214 17.85959507 -14.14298081 24.61169695 -14.0625 32.375 C-14.05798828 33.20644531 -14.05347656 34.03789062 -14.04882812 34.89453125 C-14.03713164 36.92971897 -14.01919935 38.96486923 -14 41 C-17.90694686 36.7322533 -17.36122503 32.93769278 -17.23046875 27.40234375 C-16.77133245 20.62424689 -16.07174387 13.58370118 -11.5 8.25 C-10 7 -10 7 -8 7 C-7.938125 6.401875 -7.87625 5.80375 -7.8125 5.1875 C-6.54345853 1.77084988 -3.64481301 0 0 0 Z " fill="#4A4E7B" transform="translate(307,161)"/>
<path d="M0 0 C0.74958984 0.01804688 1.49917969 0.03609375 2.27148438 0.0546875 C4.1190371 0.10175891 5.96593159 0.17350234 7.8125 0.25 C7.28856294 6.11809507 6.05141142 10.79873741 3.8125 16.25 C3.4825 16.25 3.1525 16.25 2.8125 16.25 C2.60057779 11.05790596 3.2212311 7.123261 4.8125 2.25 C-0.6325 2.745 -0.6325 2.745 -6.1875 3.25 C-6.5175 4.57 -6.8475 5.89 -7.1875 7.25 C-8.1775 7.25 -9.1675 7.25 -10.1875 7.25 C-10.1875 8.9 -10.1875 10.55 -10.1875 12.25 C-10.8475 12.25 -11.5075 12.25 -12.1875 12.25 C-12.5175 13.9 -12.8475 15.55 -13.1875 17.25 C-14.60509571 14.41480859 -13.76371354 12.89634952 -12.9375 9.875 C-12.68484375 8.91851562 -12.4321875 7.96203125 -12.171875 6.9765625 C-9.70525155 0.14440707 -6.99322348 -0.31759618 0 0 Z " fill="#5733D8" transform="translate(644.1875,158.75)"/>
<path d="M0 0 C2.70108504 0.090916 5.36930311 0.23740766 8.0625 0.4375 C9.20041992 0.51581055 9.20041992 0.51581055 10.36132812 0.59570312 C12.24121722 0.72575835 14.12065685 0.86228038 16 1 C16.33 2.65 16.66 4.3 17 6 C16.34 5.67 15.68 5.34 15 5 C15 4.01 15 3.02 15 2 C11.7 2.33 8.4 2.66 5 3 C4.67 3.99 4.34 4.98 4 6 C3.34 6 2.68 6 2 6 C2.495 6.86625 2.99 7.7325 3.5 8.625 C5.0477761 12.10749623 5.26802896 14.24759458 5 18 C5.66 18.33 6.32 18.66 7 19 C6.67 19.66 6.34 20.32 6 21 C6.99 21 7.98 21 9 21 C8.34 22.32 7.68 23.64 7 25 C-1.88105727 7.8722467 -1.88105727 7.8722467 -1 1 C-0.67 0.67 -0.34 0.34 0 0 Z " fill="#6645E0" transform="translate(592,158)"/>
<path d="M0 0 C0.33 0 0.66 0 1 0 C1.52514903 7.80429806 0.5852609 13.08865368 -3 20 C-3.33 20.99 -3.66 21.98 -4 23 C-5.63604196 24.37073786 -7.30678061 25.70055256 -9 27 C-10.35147138 28.31494512 -11.69112542 29.64264858 -13 31 C-13.66 30.67 -14.32 30.34 -15 30 C-11.55384615 23.23076923 -11.55384615 23.23076923 -8.75 22.0625 C-8.1725 22.041875 -7.595 22.02125 -7 22 C-6.67 20.68 -6.34 19.36 -6 18 C-5.34 18 -4.68 18 -4 18 C-3.814375 16.741875 -3.62875 15.48375 -3.4375 14.1875 C-3.33308594 13.47980469 -3.22867187 12.77210938 -3.12109375 12.04296875 C-2.86095201 9.7974658 -2.86095201 9.7974658 -4 7 C-3.34 7 -2.68 7 -2 7 C-1.34 4.69 -0.68 2.38 0 0 Z " fill="#54587F" transform="translate(357,185)"/>
<path d="M0 0 C0.90105469 0.02707031 1.80210937 0.05414063 2.73046875 0.08203125 C3.76107422 0.13423828 3.76107422 0.13423828 4.8125 0.1875 C2.40813974 3.79404039 0.86570393 4.04202932 -3.1875 5.1875 C-3.5175 4.8575 -3.8475 4.5275 -4.1875 4.1875 C-4.5175 7.1575 -4.8475 10.1275 -5.1875 13.1875 C0.4225 13.1875 6.0325 13.1875 11.8125 13.1875 C8.02086973 15.71525351 5.00375969 15.41193035 0.625 15.3125 C-0.12458984 15.30347656 -0.87417969 15.29445312 -1.64648438 15.28515625 C-3.49362654 15.26162578 -5.34060412 15.22575561 -7.1875 15.1875 C-7.43650646 13.25244977 -7.66106242 11.31424066 -7.875 9.375 C-8.00261719 8.29605469 -8.13023437 7.21710938 -8.26171875 6.10546875 C-8.1875 3.1875 -8.1875 3.1875 -7.03125 1.3125 C-4.56564008 -0.19193995 -2.86717087 -0.11170796 0 0 Z " fill="#765DDE" transform="translate(602.1875,225.8125)"/>
<path d="M0 0 C0.66 0.33 1.32 0.66 2 1 C1.67386719 1.6290625 1.34773437 2.258125 1.01171875 2.90625 C-1.05062918 6.94577515 -3.02940042 10.86989346 -4.4375 15.1875 C-6.37903348 20.59527404 -9.71639293 24.85819647 -14.875 27.4375 C-15.57625 27.623125 -16.2775 27.80875 -17 28 C-16.67 26.68 -16.34 25.36 -16 24 C-15.34 24.33 -14.68 24.66 -14 25 C-13.7525 24.195625 -13.505 23.39125 -13.25 22.5625 C-12 20 -12 20 -9.875 19.1875 C-9.25625 19.125625 -8.6375 19.06375 -8 19 C-8 17.68 -8 16.36 -8 15 C-7.34 15 -6.68 15 -6 15 C-5.96261719 14.31292969 -5.92523437 13.62585938 -5.88671875 12.91796875 C-5.82097656 12.01691406 -5.75523437 11.11585938 -5.6875 10.1875 C-5.62949219 9.29417969 -5.57148437 8.40085938 -5.51171875 7.48046875 C-4.93259808 4.67328075 -4.2779858 3.69302154 -2 2 C-1.34 2 -0.68 2 0 2 C0 1.34 0 0.68 0 0 Z " fill="#7456E7" transform="translate(631,211)"/>
<path d="M0 0 C11.52164009 -0.18451025 11.52164009 -0.18451025 17 1 C17 1.99 17 2.98 17 4 C17.65226562 4.89332031 18.30453125 5.78664062 18.9765625 6.70703125 C21.42142427 10.68583139 21.47632553 13.05876546 21.375 17.6875 C21.35566406 19.64236328 21.35566406 19.64236328 21.3359375 21.63671875 C21 25 21 25 19 28 C18.34 27.67 17.68 27.34 17 27 C17.37125 25.88625 17.7425 24.7725 18.125 23.625 C19.39729701 18.47173943 18.81960858 13.96334547 17 9 C13.15900822 4.14822091 9.76035345 2.15666284 3.75 1.375 C1.89375 1.189375 1.89375 1.189375 0 1 C0 0.67 0 0.34 0 0 Z " fill="#6B4BE5" transform="translate(494,171)"/>
<path d="M0 0 C2.1464753 0.11344376 4.29220592 0.24106345 6.4375 0.375 C8.22994141 0.47941406 8.22994141 0.47941406 10.05859375 0.5859375 C11.02925781 0.72257813 11.99992188 0.85921875 13 1 C13.33 1.66 13.66 2.32 14 3 C16.12493141 3.02693575 18.24995912 3.04636628 20.375 3.0625 C21.55835938 3.07410156 22.74171875 3.08570313 23.9609375 3.09765625 C26.91921521 3.21466593 26.91921521 3.21466593 29 2 C30.99960012 1.960008 33.00047242 1.95653201 35 2 C27.73077011 6.84615326 20.31979805 6.2928007 12 5 C8.26447897 4.21067615 4.55968791 3.39582509 1 2 C0.67 1.34 0.34 0.68 0 0 Z " fill="#323665" transform="translate(239,215)"/>
<path d="M0 0 C0.66 0 1.32 0 2 0 C2.33 1.98 2.66 3.96 3 6 C3.33 6 3.66 6 4 6 C4.02685095 8.47923801 4.04676547 10.9581884 4.0625 13.4375 C4.07087891 14.14455078 4.07925781 14.85160156 4.08789062 15.58007812 C4.09653588 17.38693559 4.05220011 19.19387603 4 21 C3 22 3 22 -0.0625 22.0625 C-1.031875 22.041875 -2.00125 22.02125 -3 22 C-1.68 21.34 -0.36 20.68 1 20 C0.649375 19.01 0.29875 18.02 -0.0625 17 C-1.30663994 12.70206204 -0.70814689 9.39051074 0 5 C0.03471469 3.33369491 0.05205792 1.66585346 0 0 Z " fill="#181D48" transform="translate(379,197)"/>
<path d="M0 0 C0 0.66 0 1.32 0 2 C-0.99 2.33 -1.98 2.66 -3 3 C-3.33 3.99 -3.66 4.98 -4 6 C-3.21625 5.95875 -2.4325 5.9175 -1.625 5.875 C3.00315227 6.03459146 7.55945863 6.64525857 12 8 C12.33 8.66 12.66 9.32 13 10 C15.52733235 10.65555119 15.52733235 10.65555119 18 11 C11.67355507 13.11384795 3.89626969 10.92219105 -2.1875 8.625 C-5 7 -5 7 -5.9375 4.8125 C-5.958125 4.214375 -5.97875 3.61625 -6 3 C-2.25 0 -2.25 0 0 0 Z " fill="#5F5EB0" transform="translate(133,171)"/>
<path d="M0 0 C4.7104456 1.10834014 7.11068434 3.76848234 9.83984375 7.55859375 C11.90433941 11.90307115 11.46569762 16.30852765 11 21 C10.34 21 9.68 21 9 21 C8.814375 19.4221875 8.814375 19.4221875 8.625 17.8125 C7.91604682 13.48788558 7.04273633 10.36357828 4.375 6.875 C3 5 3 5 3 2 C2.01 1.67 1.02 1.34 0 1 C0 0.67 0 0.34 0 0 Z " fill="#3B3F6D" transform="translate(275,185)"/>
<path d="M0 0 C1.32 0.33 2.64 0.66 4 1 C3.54625 1.37125 3.0925 1.7425 2.625 2.125 C-1.12816187 6.45557139 -1.38029342 11.48574536 -1 17 C-0.44670813 19.713992 0.25041008 22.32958592 1 25 C-2 24 -2 24 -3.1484375 21.86328125 C-4.12130048 18.59214106 -4.4186649 15.59202908 -4.625 12.1875 C-4.69976562 11.02605469 -4.77453125 9.86460937 -4.8515625 8.66796875 C-4.90054688 7.78753906 -4.94953125 6.90710938 -5 6 C-4.01 6 -3.02 6 -2 6 C-2 5.01 -2 4.02 -2 3 C-1.34 3 -0.68 3 0 3 C0 2.01 0 1.02 0 0 Z " fill="#7B5BE3" transform="translate(105,163)"/>
<path d="M0 0 C-0.969375 0.28875 -1.93875 0.5775 -2.9375 0.875 C-6.10664203 1.64214682 -6.10664203 1.64214682 -7 4 C-10.0625 4.625 -10.0625 4.625 -13 5 C-13.103125 5.7425 -13.20625 6.485 -13.3125 7.25 C-14.04933797 10.1973519 -14.94799142 11.78383074 -17 14 C-17.66 14 -18.32 14 -19 14 C-19.33 13.01 -19.66 12.02 -20 11 C-16.69416983 5.37084164 -12.00660224 2.01881197 -6.11328125 -0.50390625 C-3.70797231 -1.06855363 -2.31463847 -0.78896255 0 0 Z " fill="#846CE6" transform="translate(555,183)"/>
<path d="M0 0 C2.24203164 3.36304746 2.30255144 4.73639236 2.44921875 8.69140625 C2.49240234 9.80064453 2.53558594 10.90988281 2.58007812 12.05273438 C2.61552734 13.21095703 2.65097656 14.36917969 2.6875 15.5625 C2.73455078 16.72458984 2.78160156 17.88667969 2.83007812 19.08398438 C3.13676331 27.72647338 3.13676331 27.72647338 2 30 C-0.5625 30.625 -0.5625 30.625 -3 31 C-3.99 29.02 -4.98 27.04 -6 25 C-3.83125748 25.50603992 -2.00032373 25.99983813 0 27 C0 18.09 0 9.18 0 0 Z " fill="#424374" transform="translate(439,135)"/>
<path d="M0 0 C-2.98999625 2.46234985 -5.79139023 3.8405175 -9.4375 5.125 C-10.36433594 5.45757812 -11.29117188 5.79015625 -12.24609375 6.1328125 C-15 7 -15 7 -17.78515625 7.4921875 C-18.51605469 7.65976563 -19.24695313 7.82734375 -20 8 C-20.33 8.66 -20.66 9.32 -21 10 C-21 8.68 -21 7.36 -21 6 C-20.43410156 5.80664062 -19.86820312 5.61328125 -19.28515625 5.4140625 C-18.55167969 5.15367187 -17.81820312 4.89328125 -17.0625 4.625 C-15.96615234 4.24214844 -15.96615234 4.24214844 -14.84765625 3.8515625 C-12.81317884 3.14728587 -12.81317884 3.14728587 -12 1 C-7.96960118 0.06269795 -4.12580711 -0.0982335 0 0 Z " fill="#8C6BE8" transform="translate(131,153)"/>
<path d="M0 0 C-1.43671568 0.64757625 -2.87440416 1.29299453 -4.3125 1.9375 C-5.11300781 2.29714844 -5.91351562 2.65679687 -6.73828125 3.02734375 C-10.84449312 4.79322761 -14.04655523 5.1624243 -18.5 5.1875 C-19.6446875 5.20167969 -20.789375 5.21585938 -21.96875 5.23046875 C-25 5 -25 5 -28 3 C-17.605 2.505 -17.605 2.505 -7 2 C-7 1.34 -7 0.68 -7 0 C-2.25 -1.125 -2.25 -1.125 0 0 Z " fill="#775CE6" transform="translate(519,215)"/>
<path d="M0 0 C-1.32 0.33 -2.64 0.66 -4 1 C-4 1.99 -4 2.98 -4 4 C-4.66 4 -5.32 4 -6 4 C-6 4.66 -6 5.32 -6 6 C-8.64 6.66 -11.28 7.32 -14 8 C-14 8.66 -14 9.32 -14 10 C-14.66 10 -15.32 10 -16 10 C-16 10.99 -16 11.98 -16 13 C-16.66 12.67 -17.32 12.34 -18 12 C-17.67 11.01 -17.34 10.02 -17 9 C-16.34 9 -15.68 9 -15 9 C-14.5359375 8.071875 -14.5359375 8.071875 -14.0625 7.125 C-12.37041352 3.74082703 -11.5844505 2.55824265 -8.1875 0.8125 C-7.50042969 0.44769531 -6.81335938 0.08289063 -6.10546875 -0.29296875 C-3.64003451 -1.12087895 -2.41707906 -0.85276722 0 0 Z " fill="#424979" transform="translate(252,159)"/>
<path d="M0 0 C5.43544554 0.43483564 8.76167555 1.53228 13 5 C14.875 7.75 14.875 7.75 16 10 C14.35 9.67 12.7 9.34 11 9 C10.67 8.01 10.34 7.02 10 6 C9.34 6 8.68 6 8 6 C8 6.66 8 7.32 8 8 C7.01 7.67 6.02 7.34 5 7 C5 5.68 5 4.36 5 3 C2.525 2.01 2.525 2.01 0 1 C0 0.67 0 0.34 0 0 Z " fill="#5E3DE4" transform="translate(508,159)"/>
<path d="M0 0 C0.33 0.99 0.66 1.98 1 3 C0.38125 3.061875 -0.2375 3.12375 -0.875 3.1875 C-3.25342272 3.82565844 -3.25342272 3.82565844 -4.25 6.4375 C-5.09363292 8.87491227 -5.09363292 8.87491227 -5 11 C-5.763125 10.938125 -6.52625 10.87625 -7.3125 10.8125 C-10.04989692 10.70813718 -10.04989692 10.70813718 -11.5625 12.5625 C-12.036875 13.036875 -12.51125 13.51125 -13 14 C-15.1875 13.6875 -15.1875 13.6875 -17 13 C-16.21625 12.7525 -15.4325 12.505 -14.625 12.25 C-11.89652875 11.29533239 -11.89652875 11.29533239 -11.15625 9.15625 C-9.5994361 6.25300245 -7.59919784 5.06613189 -4.875 3.25 C-3.50988281 2.32960938 -3.50988281 2.32960938 -2.1171875 1.390625 C-1.06917969 0.70226562 -1.06917969 0.70226562 0 0 Z " fill="#8A64ED" transform="translate(115,109)"/>
<path d="M0 0 C1 3 1 3 0.0625 5.75 C-3.0910408 10.7192158 -7.33700623 15.11233541 -13 17 C-12.67 15.35 -12.34 13.7 -12 12 C-10.35 12 -8.7 12 -7 12 C-7 10.35 -7 8.7 -7 7 C-5.68 7 -4.36 7 -3 7 C-3 5.68 -3 4.36 -3 3 C-1.5 1.25 -1.5 1.25 0 0 Z " fill="#4243A5" transform="translate(194,223)"/>
<path d="M0 0 C1.1446875 0.12375 1.1446875 0.12375 2.3125 0.25 C1.11350302 3.3331351 -0.16450477 6.31279492 -1.6875 9.25 C-4.3275 8.59 -6.9675 7.93 -9.6875 7.25 C-9.0275 6.26 -8.3675 5.27 -7.6875 4.25 C-7.0275 4.25 -6.3675 4.25 -5.6875 4.25 C-5.0378125 3.26 -5.0378125 3.26 -4.375 2.25 C-2.6875 0.25 -2.6875 0.25 0 0 Z " fill="#080C97" transform="translate(139.6875,169.75)"/>
<path d="M0 0 C0.66 0.33 1.32 0.66 2 1 C0.17164045 5.20522697 -0.84775092 7.12479074 -5 9 C-6.14209817 10.78228936 -6.14209817 10.78228936 -7 13 C-8 15 -9 17 -10 19 C-11.04940314 15.85179059 -11.066855 15.00659136 -10 12 C-9.34 11.34 -8.68 10.68 -8 10 C-7.566875 9.236875 -7.13375 8.47375 -6.6875 7.6875 C-4.79555125 4.67439644 -2.577285 2.43797229 0 0 Z " fill="#51547F" transform="translate(401,162)"/>
<path d="M0 0 C0.33 0 0.66 0 1 0 C2.20514375 9.33986409 2.09213655 18.60207216 2 28 C1.67 28 1.34 28 1 28 C-2.01650738 6.04952215 -2.01650738 6.04952215 0 0 Z " fill="#9985EC" transform="translate(74,147)"/>
<path d="M0 0 C0 0.33 0 0.66 0 1 C-2.64 1 -5.28 1 -8 1 C-8 0.34 -8 -0.32 -8 -1 C-10.04190981 -0.85761163 -12.08352045 -0.71092972 -14.125 -0.5625 C-15.26195312 -0.48128906 -16.39890625 -0.40007812 -17.5703125 -0.31640625 C-20.7540478 -0.02269035 -23.85510907 0.43124313 -27 1 C-20.07762222 -6.58165185 -8.53337095 -2.7254873 0 0 Z " fill="#694CE0" transform="translate(579,160)"/>
<path d="M0 0 C-6.32717362 4.2337384 -12.26963575 6.51535762 -20 6 C-20.66 5.34 -21.32 4.68 -22 4 C-19.35541621 2.67770811 -17.32238699 2.90322806 -14.375 2.9375 C-12.87066406 2.95103516 -12.87066406 2.95103516 -11.3359375 2.96484375 C-10.56507813 2.97644531 -9.79421875 2.98804688 -9 3 C-9 2.01 -9 1.02 -9 0 C-2.25 -1.125 -2.25 -1.125 0 0 Z " fill="#5354A5" transform="translate(147,254)"/>
<path d="M0 0 C5.16792108 2.06716843 6.73292552 5.70256397 9.08203125 10.4296875 C10.04746619 13.13290535 10.17854197 15.15353086 10 18 C8 17 8 17 7.21875 14.75 C6.73958333 12.91666667 6.26041667 11.08333333 5.78125 9.25 C5.2328113 6.82546793 5.2328113 6.82546793 3 6 C2.01 6.33 1.02 6.66 0 7 C-0.93423645 3.98968256 -1.04449911 3.13349732 0 0 Z " fill="#7C5DEC" transform="translate(579,161)"/>
<path d="M0 0 C0 0.66 0 1.32 0 2 C-0.9178125 2.03738281 -1.835625 2.07476562 -2.78125 2.11328125 C-9.78774653 2.48862928 -15.60688626 3.05916768 -22 6 C-22.66 5.34 -23.32 4.68 -24 4 C-15.97331823 -0.1428035 -8.92981438 -0.46321804 0 0 Z " fill="#353A6C" transform="translate(427,157)"/>
<path d="M0 0 C0.33 0 0.66 0 1 0 C2.125 5.625 2.125 5.625 1 9 C0.91978001 10.40824893 0.89234023 11.81997231 0.90234375 13.23046875 C0.90556641 14.03291016 0.90878906 14.83535156 0.91210938 15.66210938 C0.92048828 16.49548828 0.92886719 17.32886719 0.9375 18.1875 C0.94201172 19.03248047 0.94652344 19.87746094 0.95117188 20.74804688 C0.96294597 22.83206155 0.9808811 24.91603977 1 27 C-2.90357359 22.73593808 -2.35700503 18.94799731 -2.23828125 13.41796875 C-1.9184213 8.82981379 -1.12607646 4.45403459 0 0 Z " fill="#8D91AD" transform="translate(292,175)"/>
<path d="M0 0 C0.66 0.33 1.32 0.66 2 1 C1.01 2.485 1.01 2.485 0 4 C-0.66 4 -1.32 4 -2 4 C-2.061875 4.721875 -2.12375 5.44375 -2.1875 6.1875 C-3.2553751 9.88399074 -5.10819816 11.53138868 -8 14 C-8.66 14 -9.32 14 -10 14 C-8.2403147 7.69446099 -5.42141176 3.67881512 0 0 Z " fill="#7E5AE8" transform="translate(85,133)"/>
<path d="M0 0 C3 1 3 1 5 3 C4.03900391 3.38091797 4.03900391 3.38091797 3.05859375 3.76953125 C-0.96876339 5.37207128 -4.9822002 6.97605653 -8.9375 8.75 C-12 10 -12 10 -15 10 C-15 9.34 -15 8.68 -15 8 C-11.535 7.505 -11.535 7.505 -8 7 C-7.67 6.01 -7.34 5.02 -7 4 C-5.01276732 3.29618843 -3.01222047 2.6288189 -1 2 C-0.67 1.34 -0.34 0.68 0 0 Z " fill="#7857EA" transform="translate(163,137)"/>
<path d="M0 0 C0.33 0 0.66 0 1 0 C0.67 2.31 0.34 4.62 0 7 C-0.83144531 7.29003906 -0.83144531 7.29003906 -1.6796875 7.5859375 C-2.40414062 7.84632813 -3.12859375 8.10671875 -3.875 8.375 C-4.59429687 8.63023437 -5.31359375 8.88546875 -6.0546875 9.1484375 C-8.18157994 9.93877783 -8.18157994 9.93877783 -10 12 C-12.625 12.125 -12.625 12.125 -15 12 C-11.87337769 8.19367718 -8.52160667 6.79873737 -4.0234375 5.125 C-1.58209842 3.76765318 -0.99316431 2.56300468 0 0 Z " fill="#4344A5" transform="translate(163,210)"/>
<path d="M0 0 C0.66 0.33 1.32 0.66 2 1 C0.28223338 4.43553323 -3.32067639 4.95270101 -6.80078125 6.171875 C-11.83699938 7.47551144 -16.84311271 7.68440171 -22 7 C-22.99 6.34 -23.98 5.68 -25 5 C-20.71 5.33 -16.42 5.66 -12 6 C-12 5.34 -12 4.68 -12 4 C-11.21753906 3.79503906 -10.43507813 3.59007812 -9.62890625 3.37890625 C-8.61699219 3.10949219 -7.60507812 2.84007812 -6.5625 2.5625 C-5.55316406 2.29566406 -4.54382813 2.02882812 -3.50390625 1.75390625 C-1.08247999 1.24021923 -1.08247999 1.24021923 0 0 Z " fill="#735AE5" transform="translate(572,213)"/>
<path d="M0 0 C0.66 0 1.32 0 2 0 C1.71640113 1.4391134 1.42278601 2.87625518 1.125 4.3125 C0.96257813 5.11300781 0.80015625 5.91351563 0.6328125 6.73828125 C0 9 0 9 -2 12 C-2.38499891 13.65549531 -2.72793135 15.3222433 -3 17 C-3.66 17 -4.32 17 -5 17 C-4.67 13.7 -4.34 10.4 -4 7 C-3.34 7 -2.68 7 -2 7 C-2 6.01 -2 5.02 -2 4 C-1.34 4 -0.68 4 0 4 C0 2.68 0 1.36 0 0 Z " fill="#6E52E3" transform="translate(637,193)"/>
<path d="M0 0 C0.66 0 1.32 0 2 0 C4.41685712 4.22949995 5.34833144 7.12335991 5 12 C5.66 12.33 6.32 12.66 7 13 C6.67 13.66 6.34 14.32 6 15 C6.99 15 7.98 15 9 15 C8.34 16.32 7.68 17.64 7 19 C0 5.24137931 0 5.24137931 0 0 Z " fill="#8D71ED" transform="translate(592,164)"/>
<path d="M0 0 C2.875 0.25 2.875 0.25 6 1 C8.22691358 3.83425364 8.28561105 6.47746369 8 10 C7 11 7 11 3.83984375 11.09765625 C1.90818359 11.08025391 1.90818359 11.08025391 -0.0625 11.0625 C-1.35285156 11.05347656 -2.64320313 11.04445312 -3.97265625 11.03515625 C-4.97167969 11.02355469 -5.97070312 11.01195312 -7 11 C-7 10.67 -7 10.34 -7 10 C-2.71 10 1.58 10 6 10 C3.90408851 4.39667783 3.90408851 4.39667783 0 0 Z " fill="#7353DD" transform="translate(567,171)"/>
<path d="M0 0 C0.66 1.32 1.32 2.64 2 4 C8.435 3.505 8.435 3.505 15 3 C15 3.99 15 4.98 15 6 C10.05 6 5.1 6 0 6 C-0.33 4.35 -0.66 2.7 -1 1 C-0.67 0.67 -0.34 0.34 0 0 Z " fill="#5E45D8" transform="translate(574,213)"/>
<path d="M0 0 C3.63 0 7.26 0 11 0 C11.66 1.98 12.32 3.96 13 6 C12.34 6.66 11.68 7.32 11 8 C10.01 7.67 9.02 7.34 8 7 C8.66 7 9.32 7 10 7 C8.36587557 5.29159719 7.13093906 4.06546953 5 3 C5 2.34 5 1.68 5 1 C3.35 1 1.7 1 0 1 C0 0.67 0 0.34 0 0 Z " fill="#6041E6" transform="translate(128,198)"/>
<path d="M0 0 C0.66 0.33 1.32 0.66 2 1 C1.66226563 1.65226563 1.32453125 2.30453125 0.9765625 2.9765625 C-1.3714688 7.57761806 -3.5577613 12.01772085 -5 17 C-5.33 17 -5.66 17 -6 17 C-5.91284983 15.06166004 -5.80467036 13.1242571 -5.6875 11.1875 C-5.62949219 10.10855469 -5.57148437 9.02960938 -5.51171875 7.91796875 C-4.96859128 4.82089837 -4.5389653 3.78667929 -2 2 C-1.34 2 -0.68 2 0 2 C0 1.34 0 0.68 0 0 Z " fill="#694CE6" transform="translate(631,211)"/>
<path d="M0 0 C0.33 1.32 0.66 2.64 1 4 C2.32 4 3.64 4 5 4 C5 5.65 5 7.3 5 9 C5.99 9.33 6.98 9.66 8 10 C9.39712274 11.95597184 10.73779907 13.95436401 12 16 C6.47596127 13.7494657 2.25561625 8.88342437 -1 4 C-0.75 1.6875 -0.75 1.6875 0 0 Z " fill="#5A5F87" transform="translate(294,200)"/>
<path d="M0 0 C1.32 0.66 2.64 1.32 4 2 C4 4.33333333 4 6.66666667 4 9 C4.66 9.33 5.32 9.66 6 10 C6 10.66 6 11.32 6 12 C5.34 12 4.68 12 4 12 C4 11.34 4 10.68 4 10 C3.01 9.67 2.02 9.34 1 9 C-0.80162669 6.47772264 -1.04839136 5.35487 -0.625 2.25 C-0.41875 1.5075 -0.2125 0.765 0 0 Z " fill="#03084C" transform="translate(299,201)"/>
<path d="M0 0 C1.32 0.33 2.64 0.66 4 1 C4 1.66 4 2.32 4 3 C2.76115681 3.72767003 1.50831659 4.43154815 0.25 5.125 C-0.44609375 5.51945313 -1.1421875 5.91390625 -1.859375 6.3203125 C-4 7 -4 7 -6.140625 6.3046875 C-8 5 -8 5 -10 2 C-7.03 2 -4.06 2 -1 2 C-0.67 1.34 -0.34 0.68 0 0 Z " fill="#494D7D" transform="translate(278,171)"/>
<path d="M0 0 C0.33 0 0.66 0 1 0 C1.33 2.97 1.66 5.94 2 9 C1.01 9.33 0.02 9.66 -1 10 C-2.315213 12.14587384 -3 13.47013105 -3 16 C-4.65 16 -6.3 16 -8 16 C-7.360625 15.236875 -6.72125 14.47375 -6.0625 13.6875 C-3.85767219 11.11753287 -3.85767219 11.11753287 -3 8 C-2.34 8 -1.68 8 -1 8 C-1.20625 7.4225 -1.4125 6.845 -1.625 6.25 C-2.08661261 3.48032433 -1.42944945 2.35438733 0 0 Z " fill="#383C6D" transform="translate(440,187)"/>
<path d="M0 0 C2.97 0.33 5.94 0.66 9 1 C8.67 1.99 8.34 2.98 8 4 C5.71484375 4.94921875 5.71484375 4.94921875 2.9375 5.6875 C1.55884766 6.06455078 1.55884766 6.06455078 0.15234375 6.44921875 C-0.55792969 6.63097656 -1.26820313 6.81273437 -2 7 C-2.33 5.68 -2.66 4.36 -3 3 C-0.525 3.495 -0.525 3.495 2 4 C2 3.34 2 2.68 2 2 C1.34 2 0.68 2 0 2 C0 1.34 0 0.68 0 0 Z " fill="#693FE6" transform="translate(139,144)"/>
<path d="M0 0 C0.33 0.66 0.66 1.32 1 2 C2.32 2 3.64 2 5 2 C5.33 3.65 5.66 5.3 6 7 C6.639375 7.103125 7.27875 7.20625 7.9375 7.3125 C8.618125 7.539375 9.29875 7.76625 10 8 C10.33 8.99 10.66 9.98 11 11 C6.21626007 9.3598606 2.29276103 7.21616176 -0.3125 2.75 C-0.6528125 1.88375 -0.6528125 1.88375 -1 1 C-0.67 0.67 -0.34 0.34 0 0 Z " fill="#7C64E6" transform="translate(80,205)"/>
<path d="M0 0 C2.96052484 3.36423277 3.92289822 6.69159287 5 11 C5.66 11 6.32 11 7 11 C6.67 12.65 6.34 14.3 6 16 C5.34 16 4.68 16 4 16 C3.32815382 13.89748139 2.66269032 11.79292237 2 9.6875 C1.443125 7.92986328 1.443125 7.92986328 0.875 6.13671875 C0 3 0 3 0 0 Z " fill="#7D5CEB" transform="translate(616,184)"/>
<path d="M0 0 C0.5465625 0.31839844 1.093125 0.63679687 1.65625 0.96484375 C4.36464301 2.16105066 6.5521749 2.37218712 9.5 2.5625 C12.79173915 2.78405937 15.82309933 3.09338448 19 4 C18.34 4 17.68 4 17 4 C17 4.66 17 5.32 17 6 C12.38 6 7.76 6 3 6 C3 5.34 3 4.68 3 4 C2.34 4 1.68 4 1 4 C0.67 2.68 0.34 1.36 0 0 Z " fill="#6149E2" transform="translate(487,201)"/>
<path d="M0 0 C0.66 0.33 1.32 0.66 2 1 C2.625 3.5625 2.625 3.5625 3 6 C3.99 6.33 4.98 6.66 6 7 C6 7.66 6 8.32 6 9 C6.99 9.33 7.98 9.66 9 10 C8.67 10.66 8.34 11.32 8 12 C5.0315035 10.62176948 2.36439249 9.28286171 0 7 C-0.8125 3.875 -0.8125 3.875 -1 1 C-0.67 0.67 -0.34 0.34 0 0 Z " fill="#3C4271" transform="translate(235,179)"/>
<path d="M0 0 C0.99 0 1.98 0 3 0 C4.35439668 2.70879335 4.06501451 5.00933268 4 8 C-1.75 10 -1.75 10 -4 10 C-4 9.01 -4 8.02 -4 7 C-2.35 6.67 -0.7 6.34 1 6 C1.33 4.35 1.66 2.7 2 1 C1.34 0.67 0.68 0.34 0 0 Z " fill="#896CE6" transform="translate(179,126)"/>
<path d="M0 0 C-5.63284189 4.42580434 -8.88709728 5.23709676 -16 5 C-16.33 4.34 -16.66 3.68 -17 3 C-16.38511719 2.86722656 -15.77023438 2.73445312 -15.13671875 2.59765625 C-14.32847656 2.42105469 -13.52023438 2.24445313 -12.6875 2.0625 C-11.88699219 1.88847656 -11.08648437 1.71445313 -10.26171875 1.53515625 C-3.38686261 -0.09153683 -3.38686261 -0.09153683 0 0 Z " fill="#6448E3" transform="translate(136,206)"/>
<path d="M0 0 C0.66 0 1.32 0 2 0 C1.40523781 4.75809749 -0.4906128 8.94710294 -3 13 C-3.99 13.495 -3.99 13.495 -5 14 C-5 12.68 -5 11.36 -5 10 C-4.34 10 -3.68 10 -3 10 C-3 9.34 -3 8.68 -3 8 C-3.66 7.67 -4.32 7.34 -5 7 C-4.360625 6.21625 -3.72125 5.4325 -3.0625 4.625 C-1.01857687 2.20460719 -1.01857687 2.20460719 0 0 Z " fill="#7256E9" transform="translate(528,196)"/>
<path d="M0 0 C0.99 0.33 1.98 0.66 3 1 C3.05397335 3.4377963 3.09365616 5.87439685 3.125 8.3125 C3.15013672 9.34793945 3.15013672 9.34793945 3.17578125 10.40429688 C3.21217794 14.17135396 3.14378864 15.78431704 1 19 C0.34 18.67 -0.32 18.34 -1 18 C-0.4740625 16.329375 -0.4740625 16.329375 0.0625 14.625 C1.34521932 9.61970361 0.76629753 5.05342157 0 0 Z " fill="#7C65E1" transform="translate(512,180)"/>
<path d="M0 0 C2.41847994 2.92119768 3.68706766 5.4915068 4.75 9.125 C5.01296875 9.99382812 5.2759375 10.86265625 5.546875 11.7578125 C6 14 6 14 5 16 C4.34 16 3.68 16 3 16 C1.56663769 10.64878069 0.59015185 5.50808397 0 0 Z " fill="#7554E4" transform="translate(610,168)"/>
<path d="M0 0 C0.66 0.33 1.32 0.66 2 1 C1.67 1.66 1.34 2.32 1 3 C1 4.32 1 5.64 1 7 C0.01 7 -0.98 7 -2 7 C-2 8.65 -2 10.3 -2 12 C-2.66 12 -3.32 12 -4 12 C-4.33 13.65 -4.66 15.3 -5 17 C-6.41759571 14.16480859 -5.57621354 12.64634952 -4.75 9.625 C-4.49734375 8.66851562 -4.2446875 7.71203125 -3.984375 6.7265625 C-3.00351102 4.00972496 -1.85168691 2.19497718 0 0 Z " fill="#8C71EB" transform="translate(636,159)"/>
<path d="M0 0 C0.33 0 0.66 0 1 0 C1.02696365 1.79158489 1.04637917 3.58328473 1.0625 5.375 C1.07410156 6.37273437 1.08570313 7.37046875 1.09765625 8.3984375 C1 11 1 11 0 13 C-0.66 13 -1.32 13 -2 13 C-2.66 11.02 -3.32 9.04 -4 7 C-3.34 7 -2.68 7 -2 7 C-1.34 4.69 -0.68 2.38 0 0 Z " fill="#585A86" transform="translate(357,185)"/>
<path d="M0 0 C0.33 0 0.66 0 1 0 C1.33 2.31 1.66 4.62 2 7 C1.01 7 0.02 7 -1 7 C-1 9.31 -1 11.62 -1 14 C-1.99 14 -2.98 14 -4 14 C-3.36843005 8.94744036 -1.86540627 4.70406799 0 0 Z " fill="#795BE7" transform="translate(628,179)"/>
<path d="M0 0 C0 0.66 0 1.32 0 2 C0.99 2 1.98 2 3 2 C3 3.32 3 4.64 3 6 C-0.94859783 5.4359146 -3.70879046 4.2568294 -7 2 C-7 1.67 -7 1.34 -7 1 C-2.25 0 -2.25 0 0 0 Z " fill="#6D51E4" transform="translate(548,174)"/>
<path d="M0 0 C1.32 0.33 2.64 0.66 4 1 C4 2.32 4 3.64 4 5 C3.01 5.33 2.02 5.66 1 6 C0.67 6.66 0.34 7.32 0 8 C-1.125 5.6875 -1.125 5.6875 -2 3 C-1.34 2.01 -0.68 1.02 0 0 Z " fill="#030958" transform="translate(275,164)"/>
<path d="M0 0 C1.39211215 4.17633644 -0.0464421 5.78960515 -1.9375 9.6875 C-2.50339844 10.86699219 -3.06929687 12.04648438 -3.65234375 13.26171875 C-4.09707031 14.16535156 -4.54179688 15.06898438 -5 16 C-5.33 16 -5.66 16 -6 16 C-6.17942163 12.05272412 -6.09350689 9.4019487 -4 6 C-3.34 6 -2.68 6 -2 6 C-1.855625 5.195625 -1.71125 4.39125 -1.5625 3.5625 C-1 1 -1 1 0 0 Z " fill="#7959E7" transform="translate(645,177)"/>
<path d="M0 0 C1.98 0.66 3.96 1.32 6 2 C6 2.99 6 3.98 6 5 C7.32 5.66 8.64 6.32 10 7 C7.69 7 5.38 7 3 7 C2.67 5.68 2.34 4.36 2 3 C1.01 3.33 0.02 3.66 -1 4 C-0.67 2.68 -0.34 1.36 0 0 Z " fill="#3C3E71" transform="translate(438,212)"/>
<path d="M0 0 C4.56454251 0.54339792 7.9728176 1.79463821 12 4 C11.67 4.99 11.34 5.98 11 7 C7.59687262 5.94124926 4.98646769 4.99097846 2 3 C2 2.34 2 1.68 2 1 C1.34 0.67 0.68 0.34 0 0 Z " fill="#3E4179" transform="translate(270,159)"/>
<path d="M0 0 C2.12046792 3.53411321 2.53199289 6.94393835 3 11 C3.99 11.33 4.98 11.66 6 12 C5.34 12.66 4.68 13.32 4 14 C0.72151013 10.40423692 -0.68129663 7.88678502 -1 3 C-0.67 2.01 -0.34 1.02 0 0 Z " fill="#694CE3" transform="translate(536,201)"/>
<path d="M0 0 C0.33 0.99 0.66 1.98 1 3 C-0.98 3.99 -0.98 3.99 -3 5 C-3.2981424 8.7763932 -3.2981424 8.7763932 -2 11 C-3.32 10.67 -4.64 10.34 -6 10 C-6.33 8.02 -6.66 6.04 -7 4 C-4.35261084 2.5393715 -3.10551666 2 0 2 C0 1.34 0 0.68 0 0 Z " fill="#5A5CB1" transform="translate(103,236)"/>
<path d="M0 0 C1.65 0.33 3.3 0.66 5 1 C4.654156 4.11259604 4.12620033 5.82872813 2.25 8.375 C0 10 0 10 -2.75 9.75 C-3.4925 9.5025 -4.235 9.255 -5 9 C-2.68143083 7.45428722 -0.49361571 6.20381448 2 5 C2 4.01 2 3.02 2 2 C1.34 1.34 0.68 0.68 0 0 Z " fill="#575A84" transform="translate(266,198)"/>
<path d="M0 0 C0.66 1.32 1.32 2.64 2 4 C0 7 0 7 -2.1640625 7.51171875 C-2.97617187 7.56972656 -3.78828125 7.62773437 -4.625 7.6875 C-5.85089844 7.78611328 -5.85089844 7.78611328 -7.1015625 7.88671875 C-7.72804688 7.92410156 -8.35453125 7.96148437 -9 8 C-7 6 -7 6 -5.0625 5.125 C-2.62612647 3.79606898 -1.52462607 2.2869391 0 0 Z " fill="#3A3D75" transform="translate(338,197)"/>
<path d="M0 0 C4.29 0 8.58 0 13 0 C13.36923077 6.52307692 13.36923077 6.52307692 11.5 8.9375 C11.005 9.288125 10.51 9.63875 10 10 C10.48578543 6.87709365 10.9986012 4.00419641 12 1 C8.04 1 4.08 1 0 1 C0 0.67 0 0.34 0 0 Z " fill="#C3B5F4" transform="translate(561,193)"/>
<path d="M0 0 C3.63 0.33 7.26 0.66 11 1 C11 1.33 11 1.66 11 2 C10.40832031 2.03738281 9.81664062 2.07476562 9.20703125 2.11328125 C4.39332549 2.51376901 0.99158223 3.0385035 -3 6 C-3 4.35 -3 2.7 -3 1 C-2.01 1.495 -2.01 1.495 -1 2 C-0.67 1.34 -0.34 0.68 0 0 Z " fill="#5534D6" transform="translate(556,169)"/>
<path d="M0 0 C2.64 0 5.28 0 8 0 C8 0.66 8 1.32 8 2 C5.36 2.33 2.72 2.66 0 3 C-0.33 5.31 -0.66 7.62 -1 10 C-1.33 10 -1.66 10 -2 10 C-2.17942163 6.05272412 -2.09350689 3.4019487 0 0 Z " fill="#6A40E3" transform="translate(131,113)"/>
<path d="M0 0 C2.97 0 5.94 0 9 0 C6.3139714 1.79068573 4.3373411 2.66055791 1.3125 3.625 C0.10013672 4.01558594 0.10013672 4.01558594 -1.13671875 4.4140625 C-1.75160156 4.60742188 -2.36648437 4.80078125 -3 5 C-3.33 4.01 -3.66 3.02 -4 2 C-2.68 2 -1.36 2 0 2 C0 1.34 0 0.68 0 0 Z " fill="#856EE9" transform="translate(116,211)"/>
<path d="M0 0 C0 0.66 0 1.32 0 2 C-1.32 2 -2.64 2 -4 2 C-4 2.99 -4 3.98 -4 5 C-5.65 5.66 -7.3 6.32 -9 7 C-9 6.34 -9 5.68 -9 5 C-9.66 4.67 -10.32 4.34 -11 4 C-9.5437455 3.32880451 -8.08492133 2.66318193 -6.625 2 C-5.81289062 1.62875 -5.00078125 1.2575 -4.1640625 0.875 C-2 0 -2 0 0 0 Z " fill="#6869B7" transform="translate(128,228)"/>
<path d="M0 0 C0.66 0 1.32 0 2 0 C2.09765625 6.15234375 2.09765625 6.15234375 2 8 C1 9 1 9 -2.0625 9.0625 C-3.031875 9.041875 -4.00125 9.02125 -5 9 C-4.0409375 8.443125 -4.0409375 8.443125 -3.0625 7.875 C-0.36141928 5.41947207 -0.31592995 3.55421195 0 0 Z " fill="#656981" transform="translate(381,210)"/>
<path d="M0 0 C1.8125 0.5 1.8125 0.5 4 2 C5.26152609 4.5863924 6.15643045 7.25200829 7 10 C4.53199953 8.84826645 2.95216435 7.95216435 1 6 C1 5.01 1 4.02 1 3 C0.34 3 -0.32 3 -1 3 C-0.67 2.01 -0.34 1.02 0 0 Z " fill="#595C87" transform="translate(232,205)"/>
<path d="M0 0 C0.33 1.32 0.66 2.64 1 4 C-2.3125 5.125 -2.3125 5.125 -6 6 C-6.99 5.34 -7.98 4.68 -9 4 C-6.03 2.68 -3.06 1.36 0 0 Z " fill="#684CE3" transform="translate(572,202)"/>
<path d="M0 0 C0.33 0.99 0.66 1.98 1 3 C0.38125 3.0825 -0.2375 3.165 -0.875 3.25 C-3.18346804 3.78810733 -3.18346804 3.78810733 -4 6 C-5 8 -5 8 -7.125 8.75 C-8.053125 8.87375 -8.053125 8.87375 -9 9 C-7.48328036 4.44984107 -3.83108947 2.49942736 0 0 Z " fill="#7653E6" transform="translate(115,109)"/>
<path d="M0 0 C1.32 0 2.64 0 4 0 C4 0.66 4 1.32 4 2 C6.31 2 8.62 2 11 2 C11 3.32 11 4.64 11 6 C10.484375 5.731875 9.96875 5.46375 9.4375 5.1875 C6.33598585 3.67650593 3.17737194 2.34427274 0 1 C0 0.67 0 0.34 0 0 Z " fill="#40409E" transform="translate(107,250)"/>
<path d="M0 0 C1 3 1 3 -0.25 6.0625 C-2 9 -2 9 -5 11 C-5 9.68 -5 8.36 -5 7 C-4.34 7 -3.68 7 -3 7 C-3 5.68 -3 4.36 -3 3 C-1.5 1.25 -1.5 1.25 0 0 Z " fill="#6365B9" transform="translate(194,223)"/>
<path d="M0 0 C1.7492214 -0.08142927 3.49954542 -0.13938541 5.25 -0.1875 C6.22453125 -0.22230469 7.1990625 -0.25710937 8.203125 -0.29296875 C11.37468742 0.03924798 12.67040307 0.88672279 15 3 C9.5814234 3.22577402 5.22512279 2.46670113 0 1 C0 0.67 0 0.34 0 0 Z " fill="#565981" transform="translate(312,218)"/>
<path d="M0 0 C0.99 0 1.98 0 3 0 C2.45773019 3.79588866 0.79872437 5.47211993 -2 8 C-2.66 7.67 -3.32 7.34 -4 7 C-2.68 4.69 -1.36 2.38 0 0 Z " fill="#363968" transform="translate(346,208)"/>
<path d="M0 0 C1.32 0.33 2.64 0.66 4 1 C4.144375 1.763125 4.28875 2.52625 4.4375 3.3125 C4.9632594 6.08172908 4.9632594 6.08172908 6 9 C5.01 9 4.02 9 3 9 C0 2.25 0 2.25 0 0 Z " fill="#7456EB" transform="translate(607,202)"/>
<path d="M0 0 C1.32 0 2.64 0 4 0 C3.649375 0.7425 3.29875 1.485 2.9375 2.25 C1.95490707 5.1322726 1.9673198 6.21176345 3 9 C2.01 9.495 2.01 9.495 1 10 C-1.125 3.375 -1.125 3.375 0 0 Z " fill="#7255E9" transform="translate(549,196)"/>
<path d="M0 0 C1.75 0.125 1.75 0.125 4 1 C6.25 4.0625 6.25 4.0625 8 7 C6.35 6.67 4.7 6.34 3 6 C2.87625 5.195625 2.7525 4.39125 2.625 3.5625 C2.315625 2.2940625 2.315625 2.2940625 2 1 C1.34 0.67 0.68 0.34 0 0 Z " fill="#755BE9" transform="translate(516,162)"/>
<path d="M0 0 C2.1464753 0.11344376 4.29220592 0.24106345 6.4375 0.375 C8.22994141 0.47941406 8.22994141 0.47941406 10.05859375 0.5859375 C11.02925781 0.72257813 11.99992188 0.85921875 13 1 C13.33 1.66 13.66 2.32 14 3 C8.0819503 4.32854177 5.22270869 3.66464729 0 1 C0 0.67 0 0.34 0 0 Z " fill="#474A76" transform="translate(239,215)"/>
<path d="M0 0 C1.1875 1.6875 1.1875 1.6875 2 4 C0.50692877 7.22189054 -1.3755397 9.6254883 -4 12 C-4.34734012 7.8319185 -3.64652221 6.17582665 -1 3 C-0.67 2.01 -0.34 1.02 0 0 Z " fill="#74769A" transform="translate(394,169)"/>
<path d="M0 0 C7.57142857 4 7.57142857 4 10 8 C8.02 7.34 6.04 6.68 4 6 C4 5.34 4 4.68 4 4 C2.68 3.34 1.36 2.68 0 2 C0 1.34 0 0.68 0 0 Z " fill="#9D82EB" transform="translate(162,113)"/>
<path d="M0 0 C-0.99 0 -1.98 0 -3 0 C-3 0.99 -3 1.98 -3 3 C-5.97 3 -8.94 3 -12 3 C-4.82142857 -1.78571429 -4.82142857 -1.78571429 0 0 Z " fill="#6160B9" transform="translate(117,234)"/>
<path d="M0 0 C0.66 0.66 1.32 1.32 2 2 C-1.465 4.97 -1.465 4.97 -5 8 C-5.33 6.68 -5.66 5.36 -6 4 C-5.34 3.34 -4.68 2.68 -4 2 C-2.68 2 -1.36 2 0 2 C0 1.34 0 0.68 0 0 Z " fill="#575F85" transform="translate(283,208)"/>
<path d="M0 0 C-1.625 2.0625 -1.625 2.0625 -4 4 C-7.25 3.75 -7.25 3.75 -10 3 C-4.375 -1.3125 -4.375 -1.3125 0 0 Z " fill="#836DE9" transform="translate(554,160)"/>
<path d="M0 0 C0.33 1.32 0.66 2.64 1 4 C-3.455 4.495 -3.455 4.495 -8 5 C-8.33 4.01 -8.66 3.02 -9 2 C-6.36 2 -3.72 2 -1 2 C-0.67 1.34 -0.34 0.68 0 0 Z " fill="#704CE7" transform="translate(140,123)"/>
<path d="M0 0 C0 0.66 0 1.32 0 2 C-3.41831915 4.5393228 -5.75776898 5.3636198 -10 5 C-10.33 4.34 -10.66 3.68 -11 3 C-9.54293274 2.49632243 -8.08429904 1.99717444 -6.625 1.5 C-5.81289062 1.2215625 -5.00078125 0.943125 -4.1640625 0.65625 C-2 0 -2 0 0 0 Z " fill="#4C4CA6" transform="translate(140,224)"/>
<path d="M0 0 C0.33 0.66 0.66 1.32 1 2 C1.66 2 2.32 2 3 2 C3 3.98 3 5.96 3 8 C1.68 8.33 0.36 8.66 -1 9 C-0.67 6.03 -0.34 3.06 0 0 Z " fill="#7E63E8" transform="translate(612,213)"/>
<path d="M0 0 C1.98 0.99 1.98 0.99 4 2 C4 2.99 4 3.98 4 5 C4.66 4.34 5.32 3.68 6 3 C6 4.65 6 6.3 6 8 C3.04890203 6.91793075 2.15905231 6.32605724 0.75 3.4375 C0 1 0 1 0 0 Z " fill="#61628E" transform="translate(393,204)"/>
<path d="M0 0 C0.99 0 1.98 0 3 0 C3.53012738 1.28788008 4.0488329 2.58046678 4.5625 3.875 C4.99755859 4.95394531 4.99755859 4.95394531 5.44140625 6.0546875 C6 8 6 8 5 10 C2.96022723 6.75490696 1.33488128 3.59391114 0 0 Z " fill="#7C7CC3" transform="translate(161,188)"/>
<path d="M0 0 C0.99 0.33 1.98 0.66 3 1 C3.73046875 2.84765625 3.73046875 2.84765625 4.1875 5.0625 C4.34605469 5.79597656 4.50460938 6.52945313 4.66796875 7.28515625 C4.83232422 8.13400391 4.83232422 8.13400391 5 9 C4.01 8.67 3.02 8.34 2 8 C0.5522078 5.10441559 0 3.25811062 0 0 Z " fill="#8163DE" transform="translate(101,179)"/>
<path d="M0 0 C1.32 0.33 2.64 0.66 4 1 C2.73308493 1.67408308 1.46129251 2.33900497 0.1875 3 C-0.52019531 3.37125 -1.22789062 3.7425 -1.95703125 4.125 C-4 5 -4 5 -7 5 C-7 4.34 -7 3.68 -7 3 C-3.535 2.505 -3.535 2.505 0 2 C0 1.34 0 0.68 0 0 Z " fill="#9E87E7" transform="translate(155,142)"/>
<path d="M0 0 C0.33 1.32 0.66 2.64 1 4 C2.32 4 3.64 4 5 4 C5 5.32 5 6.64 5 8 C4.01 8 3.02 8 2 8 C0.25 6.25 0.25 6.25 -1 4 C-0.6875 1.75 -0.6875 1.75 0 0 Z " fill="#383E6D" transform="translate(294,200)"/>
<path d="M0 0 C1.32 0.66 2.64 1.32 4 2 C4 2.66 4 3.32 4 4 C2.02 4.33 0.04 4.66 -2 5 C-2.33 4.34 -2.66 3.68 -3 3 C-2.01 2.01 -1.02 1.02 0 0 Z " fill="#431AF3" transform="translate(134,201)"/>
<path d="M0 0 C0.99 0.33 1.98 0.66 3 1 C2.01 2.98 1.02 4.96 0 7 C-0.99 7 -1.98 7 -3 7 C-1.125 2.25 -1.125 2.25 0 0 Z " fill="#454878" transform="translate(408,176)"/>
<path d="M0 0 C0.66 0 1.32 0 2 0 C3.06775224 1.96466413 4.06553465 3.96855359 5 6 C4.67 6.66 4.34 7.32 4 8 C2 6.25 2 6.25 0 4 C0 2.68 0 1.36 0 0 Z " fill="#7B5AE7" transform="translate(592,164)"/>
<path d="M0 0 C-2.97 1.32 -5.94 2.64 -9 4 C-9 2.68 -9 1.36 -9 0 C-2.25 -1.125 -2.25 -1.125 0 0 Z " fill="#4D4FAE" transform="translate(147,254)"/>
<path d="M0 0 C0.5625 1.9375 0.5625 1.9375 1 4 C0 5 0 5 -2.5625 5.0625 C-3.7690625 5.0315625 -3.7690625 5.0315625 -5 5 C-4 2 -4 2 -1.9375 0.8125 C-1.298125 0.544375 -0.65875 0.27625 0 0 Z " fill="#2B3164" transform="translate(455,214)"/>
<path d="M0 0 C0.99 0.33 1.98 0.66 3 1 C2.67 1.33 2.34 1.66 2 2 C2.639375 2.28875 3.27875 2.5775 3.9375 2.875 C6 4 6 4 7 6 C4.03 5.505 4.03 5.505 1 5 C0.67 3.35 0.34 1.7 0 0 Z " fill="#434571" transform="translate(400,211)"/>
<path d="M0 0 C2.31 0 4.62 0 7 0 C5.515 2.475 5.515 2.475 4 5 C2 3.625 2 3.625 0 2 C0 1.34 0 0.68 0 0 Z " fill="#040A4B" transform="translate(233,205)"/>
<path d="M0 0 C0.66 0.33 1.32 0.66 2 1 C1.67 1.78375 1.34 2.5675 1 3.375 C-0.11866511 5.84332497 -0.11866511 5.84332497 0 8 C-1.65 8 -3.3 8 -5 8 C-4.360625 7.236875 -3.72125 6.47375 -3.0625 5.6875 C-0.85767219 3.11753287 -0.85767219 3.11753287 0 0 Z " fill="#74759E" transform="translate(437,195)"/>
<path d="M0 0 C0.66 0 1.32 0 2 0 C2.66 2.97 3.32 5.94 4 9 C2 7.875 2 7.875 0 6 C-0.25 2.8125 -0.25 2.8125 0 0 Z " fill="#9379EA" transform="translate(481,190)"/>
<path d="M0 0 C1.32 0 2.64 0 4 0 C4 0.66 4 1.32 4 2 C4.99 2.33 5.98 2.66 7 3 C6.67 4.32 6.34 5.64 6 7 C5.38125 6.21625 4.7625 5.4325 4.125 4.625 C2.10141339 2.03162353 2.10141339 2.03162353 0 0 Z " fill="#6D7093" transform="translate(332,174)"/>
<path d="M0 0 C1.13643966 3.40931897 0.86747764 4.00335456 -0.4375 7.1875 C-0.86869141 8.26064453 -0.86869141 8.26064453 -1.30859375 9.35546875 C-1.53675781 9.89816406 -1.76492188 10.44085938 -2 11 C-2.33 11 -2.66 11 -3 11 C-3.36923077 4.6 -3.36923077 4.6 -1.5 1.5625 C-1.005 1.046875 -0.51 0.53125 0 0 Z " fill="#8368E0" transform="translate(650,164)"/>
<path d="M0 0 C-0.66 1.32 -1.32 2.64 -2 4 C-2.33 3.34 -2.66 2.68 -3 2 C-5.52733235 1.34444881 -5.52733235 1.34444881 -8 1 C-4.93251126 -0.86240388 -3.40254489 -1.2151946 0 0 Z " fill="#4449B3" transform="translate(161,162)"/>
<path d="M0 0 C3.465 1.98 3.465 1.98 7 4 C6.01 4.66 5.02 5.32 4 6 C2.68 5.34 1.36 4.68 0 4 C0 2.68 0 1.36 0 0 Z " fill="#8968EC" transform="translate(150,104)"/>
<path d="M0 0 C2.97 0 5.94 0 9 0 C5 2 5 2 2 2 C1.01 3.485 1.01 3.485 0 5 C0 3.35 0 1.7 0 0 Z " fill="#411FE7" transform="translate(596,228)"/>
<path d="M0 0 C-4.13378595 2.7558573 -6.05203546 3.10756445 -11 3 C-6.86621405 0.2441427 -4.94796454 -0.10756445 0 0 Z " fill="#414670" transform="translate(274,217)"/>
<path d="M0 0 C0.33 0 0.66 0 1 0 C0.67 2.31 0.34 4.62 0 7 C-1.32 6.67 -2.64 6.34 -4 6 C-2.69593116 3.98079663 -1.36176581 1.98075027 0 0 Z " fill="#313098" transform="translate(163,210)"/>
<path d="M0 0 C0.6875 1.8125 0.6875 1.8125 1 4 C-0.4375 5.75 -0.4375 5.75 -2 7 C-2 6.34 -2 5.68 -2 5 C-2.66 4.67 -3.32 4.34 -4 4 C-2.68 2.68 -1.36 1.36 0 0 Z " fill="#694FF0" transform="translate(510,199)"/>
<path d="M0 0 C-1.125 1.5 -1.125 1.5 -3 3 C-6.1875 3.1875 -6.1875 3.1875 -9 3 C-7.14340032 -0.71319936 -3.69365381 -0.09982848 0 0 Z " fill="#1A205F" transform="translate(271,194)"/>
<path d="M0 0 C3.91402949 1.26941497 5.79072873 2.51167694 8 6 C6.35 5.67 4.7 5.34 3 5 C3 4.01 3 3.02 3 2 C2.01 1.67 1.02 1.34 0 1 C0 0.67 0 0.34 0 0 Z " fill="#505284" transform="translate(275,185)"/>
<path d="M0 0 C0.99 0.33 1.98 0.66 3 1 C3 4.3 3 7.6 3 11 C2.67 11 2.34 11 2 11 C1.66550467 9.35440244 1.33243501 7.70851502 1 6.0625 C0.814375 5.14597656 0.62875 4.22945312 0.4375 3.28515625 C0 1 0 1 0 0 Z " fill="#73769B" transform="translate(339,181)"/>
<path d="M0 0 C0.66 0.33 1.32 0.66 2 1 C2.625 3.5625 2.625 3.5625 3 6 C2.01 6.33 1.02 6.66 0 7 C-0.38133299 5.0085944 -0.71325582 3.00720923 -1 1 C-0.67 0.67 -0.34 0.34 0 0 Z " fill="#505485" transform="translate(235,179)"/>
<path d="M0 0 C2.97 0 5.94 0 9 0 C9.33 0.99 9.66 1.98 10 3 C9.01 3 8.02 3 7 3 C7 2.34 7 1.68 7 1 C4.69 1.33 2.38 1.66 0 2 C0 1.34 0 0.68 0 0 Z " fill="#5D6181" transform="translate(420,171)"/>
<path d="M0 0 C0 0.99 0 1.98 0 3 C-1.98 3.99 -3.96 4.98 -6 6 C-3.84615385 0 -3.84615385 0 0 0 Z " fill="#535682" transform="translate(307,161)"/>
<path d="M0 0 C6.625 0.75 6.625 0.75 10 3 C7.36 3 4.72 3 2 3 C2 2.34 2 1.68 2 1 C1.34 0.67 0.68 0.34 0 0 Z " fill="#7B60E2" transform="translate(569,158)"/>
<path d="" fill="#FFFFFF" transform="translate(0,0)"/>
</svg>
